<svg width="422" height="422" viewBox="0 0 422 422" fill="none" xmlns="http://www.w3.org/2000/svg">
<path d="M407.326 218.111C407.543 218.116 407.737 218.089 407.909 218.03C408.086 217.97 408.25 217.857 408.401 217.691C408.552 217.525 408.705 217.289 408.86 216.983C409.021 216.676 409.187 216.273 409.359 215.774C409.562 215.205 409.787 214.663 410.036 214.148C410.29 213.639 410.581 213.187 410.908 212.791C411.235 212.396 411.613 212.086 412.041 211.864C412.469 211.646 412.964 211.546 413.526 211.561C414.071 211.575 414.559 211.709 414.992 211.961C415.425 212.213 415.791 212.56 416.09 213.002C416.394 213.444 416.62 213.96 416.769 214.55C416.923 215.14 416.99 215.787 416.971 216.49C416.946 217.427 416.757 218.245 416.404 218.945C416.056 219.651 415.579 220.195 414.97 220.577C414.368 220.959 413.674 221.14 412.89 221.118L412.967 218.272C413.312 218.281 413.619 218.216 413.886 218.077C414.159 217.943 414.376 217.732 414.536 217.444C414.696 217.161 414.782 216.803 414.794 216.369C414.805 215.948 414.751 215.591 414.629 215.301C414.514 215.016 414.35 214.798 414.137 214.646C413.924 214.499 413.689 214.423 413.431 214.416C413.226 214.41 413.037 214.458 412.865 214.559C412.698 214.665 412.538 214.819 412.386 215.02C412.24 215.228 412.098 215.482 411.961 215.783C411.824 216.084 411.692 216.429 411.564 216.818C411.329 217.498 411.072 218.097 410.794 218.617C410.516 219.143 410.205 219.583 409.862 219.937C409.518 220.292 409.133 220.554 408.706 220.724C408.28 220.9 407.8 220.981 407.267 220.966C406.698 220.951 406.198 220.826 405.764 220.592C405.331 220.363 404.965 220.037 404.666 219.612C404.372 219.194 404.154 218.696 404.011 218.118C403.869 217.539 403.807 216.896 403.826 216.187C403.844 215.543 403.943 214.91 404.124 214.287C404.31 213.665 404.584 213.104 404.943 212.604C405.302 212.109 405.752 211.717 406.294 211.427C406.84 211.143 407.483 211.011 408.221 211.031L408.144 213.895C407.757 213.884 407.427 213.931 407.155 214.035C406.888 214.139 406.67 214.292 406.501 214.492C406.331 214.699 406.207 214.95 406.129 215.247C406.05 215.544 406.006 215.877 405.996 216.246C405.985 216.673 406.034 217.021 406.144 217.287C406.26 217.56 406.421 217.764 406.629 217.898C406.836 218.033 407.069 218.104 407.326 218.111Z" fill="white"/>
<path d="M413.605 229.193L403.576 224.983L403.847 221.936L416.174 227.789L416.003 229.715L413.605 229.193ZM403.041 231.006L413.656 228.624L416.111 228.498L415.938 230.45L402.77 234.053L403.041 231.006ZM407.798 231.288L405.592 231.092L406.183 224.447L408.389 224.643L407.798 231.288Z" fill="white"/>
<path d="M404.704 240.178L414.124 244.484L413.646 247.638L401.65 241.387L401.961 239.328L404.704 240.178ZM414.938 239.104L404.667 240.421L401.793 240.44L402.109 238.354L415.414 235.959L414.938 239.104Z" fill="white"/>
<path d="M400.952 256.443L398.786 255.979L400.215 249.319L402.381 249.784L400.952 256.443ZM412.523 252.958L400.011 250.273L400.612 247.471L413.124 250.156L412.523 252.958ZM406.447 256.724L404.35 256.274L405.595 250.473L407.692 250.923L406.447 256.724ZM411.296 258.672L409.122 258.206L410.553 251.537L412.727 252.004L411.296 258.672Z" fill="white"/>
<path d="M396.118 265.701L396.926 263.007L399.042 263.66L398.24 266.337C398.057 266.949 398.042 267.507 398.197 268.012C398.357 268.519 398.682 268.965 399.172 269.35C399.668 269.738 400.317 270.051 401.12 270.292L401.684 270.461C402.29 270.643 402.842 270.741 403.339 270.755C403.842 270.771 404.286 270.706 404.673 270.559C405.06 270.411 405.385 270.182 405.65 269.87C405.913 269.563 406.114 269.18 406.252 268.719L407.069 265.992L409.199 266.63L408.382 269.358C408.133 270.188 407.766 270.904 407.28 271.505C406.792 272.111 406.213 272.586 405.541 272.929C404.868 273.278 404.133 273.483 403.338 273.544C402.543 273.605 401.707 273.505 400.832 273.243L400.284 273.079C399.414 272.818 398.661 272.442 398.025 271.952C397.395 271.463 396.895 270.888 396.524 270.227C396.157 269.573 395.936 268.861 395.861 268.092C395.785 267.323 395.871 266.526 396.118 265.701ZM408.717 268.238L396.459 264.565L397.282 261.82L409.54 265.493L408.717 268.238Z" fill="white"/>
<path d="M392.746 282.44L390.666 281.678L393.011 275.283L395.091 276.045L392.746 282.44ZM404.69 280.604L392.675 276.199L393.662 273.509L405.676 277.914L404.69 280.604ZM398.148 283.485L396.134 282.747L398.177 277.177L400.19 277.915L398.148 283.485ZM402.678 286.092L400.59 285.326L402.938 278.923L405.026 279.688L402.678 286.092Z" fill="white"/>
<path d="M390.884 288.422L398.897 294.984L397.632 297.913L387.622 288.814L388.448 286.902L390.884 288.422ZM401.054 289.99L390.786 288.648L388.002 287.934L388.838 285.998L402.315 287.069L401.054 289.99Z" fill="white"/>
<path d="M383.278 302.873L381.3 301.876L384.368 295.794L386.345 296.791L383.278 302.873ZM395.354 302.428L383.928 296.665L385.219 294.107L396.645 299.869L395.354 302.428ZM388.524 304.534L386.609 303.569L389.28 298.272L391.195 299.237L388.524 304.534ZM392.722 307.646L390.737 306.645L393.808 300.555L395.794 301.557L392.722 307.646Z" fill="white"/>
<path d="M378.318 311.585L376.394 310.487L379.598 304.877L381.521 305.976L378.318 311.585ZM390.227 312.07L379.114 305.725L380.535 303.236L391.647 309.582L390.227 312.07Z" fill="white"/>
<path d="M375.352 324.422L374.874 324.11C374.059 323.579 373.401 322.99 372.9 322.341C372.396 321.698 372.051 321.022 371.863 320.312C371.672 319.607 371.638 318.892 371.76 318.168C371.884 317.451 372.169 316.752 372.614 316.07C373.058 315.387 373.585 314.842 374.194 314.435C374.807 314.03 375.478 313.768 376.206 313.648C376.932 313.534 377.692 313.574 378.487 313.771C379.282 313.968 380.087 314.331 380.902 314.863L381.38 315.174C382.195 315.706 382.853 316.295 383.354 316.943C383.859 317.595 384.208 318.273 384.399 318.978C384.586 319.688 384.617 320.403 384.489 321.125C384.367 321.849 384.083 322.553 383.638 323.235C383.193 323.917 382.664 324.461 382.051 324.865C381.443 325.273 380.777 325.532 380.055 325.641C379.33 325.756 378.567 325.714 377.767 325.514C376.972 325.317 376.167 324.953 375.352 324.422ZM376.453 321.688L376.946 322.01C377.491 322.365 378.004 322.629 378.485 322.803C378.971 322.98 379.418 323.068 379.824 323.067C380.23 323.066 380.594 322.975 380.916 322.792C381.242 322.614 381.519 322.35 381.746 322.001C381.983 321.638 382.115 321.274 382.144 320.908C382.178 320.545 382.113 320.177 381.95 319.805C381.784 319.438 381.521 319.068 381.163 318.694C380.807 318.329 380.356 317.969 379.811 317.614L379.318 317.292C378.778 316.94 378.267 316.673 377.784 316.491C377.302 316.318 376.856 316.23 376.445 316.227C376.034 316.225 375.667 316.311 375.343 316.485C375.017 316.664 374.735 316.935 374.499 317.298C374.271 317.647 374.143 318.004 374.115 318.37C374.083 318.741 374.151 319.114 374.319 319.489C374.487 319.865 374.749 320.235 375.106 320.6C375.464 320.973 375.913 321.336 376.453 321.688Z" fill="white"/>
<path d="M369.259 328.938L371.18 326.358L372.963 327.685L371.043 330.266C370.759 330.647 370.595 330.999 370.551 331.324C370.503 331.654 370.549 331.955 370.69 332.227C370.831 332.508 371.043 332.753 371.325 332.963C371.617 333.18 371.929 333.325 372.262 333.397C372.596 333.478 372.928 333.459 373.258 333.339C373.585 333.224 373.89 332.976 374.173 332.596L375.475 330.847L366.993 324.534L368.704 322.236L378.969 329.876L375.957 333.923C375.348 334.741 374.679 335.331 373.949 335.694C373.216 336.061 372.475 336.207 371.727 336.133C370.98 336.066 370.275 335.786 369.613 335.293C368.95 334.8 368.491 334.214 368.237 333.535C367.979 332.861 367.932 332.129 368.097 331.338C368.263 330.556 368.65 329.756 369.259 328.938Z" fill="white"/>
<path d="M370.662 340.819L369.117 342.62L360.17 338.997L365.117 347.282L363.571 349.084L356.778 337.349L358.031 335.888L370.662 340.819ZM371.555 339.778L369.981 341.612L362.491 335.778L359.977 333.62L361.842 331.446L371.555 339.778ZM364.252 348.29L362.673 350.131L352.96 341.798L354.832 339.617L357.347 341.775L364.252 348.29Z" fill="white"/>
<path d="M346.904 351.098L345.321 349.549L350.085 344.68L351.668 346.229L346.904 351.098ZM358.549 354.327L349.402 345.378L351.406 343.33L360.553 352.279L358.549 354.327ZM351.401 354.268L349.868 352.769L354.017 348.528L355.55 350.028L351.401 354.268ZM354.462 358.505L352.872 356.95L357.642 352.075L359.231 353.63L354.462 358.505Z" fill="white"/>
<path d="M344.801 367.337L336.224 357.84L338.344 355.926L347.475 358.824L341.931 352.686L344.058 350.765L352.635 360.263L350.508 362.183L341.371 359.291L346.914 365.429L344.801 367.337Z" fill="white"/>
<path d="M338.65 372.322L330.64 362.342L332.868 360.554L340.878 370.534L338.65 372.322ZM335.613 374.759L334.221 373.025L342.461 366.412L343.852 368.146L335.613 374.759Z" fill="white"/>
<path d="M320.877 371.562L324.935 382.305L323.711 383.115L322.461 382.278L318.425 371.267L319.766 370.379L320.877 371.562ZM327.888 380.349L319.895 372.149L319.349 370.656L320.873 369.646L330.255 378.781L327.888 380.349ZM315.532 375.112L319.952 385.605L317.593 387.168L312.842 374.965L314.351 373.966L315.532 375.112ZM322.912 383.644L314.541 375.685L313.941 374.237L315.274 373.354L323.88 381.349L324.136 382.834L322.912 383.644Z" fill="white"/>
<path d="M302.647 383.398L301.555 381.471L307.483 378.115L308.574 380.042L302.647 383.398ZM312.939 389.731L306.634 378.595L309.127 377.184L315.432 388.32L312.939 389.731ZM306.088 387.692L305.031 385.825L310.194 382.903L311.25 384.769L306.088 387.692ZM307.853 392.611L306.757 390.676L312.692 387.316L313.788 389.251L307.853 392.611Z" fill="white"/>
<path d="M295.062 396.165L293.746 385.368L296.526 384.093L297.555 397.7L295.797 398.506L295.062 396.165ZM288.25 387.889L295.581 395.926L296.908 397.997L295.126 398.814L285.47 389.164L288.25 387.889ZM290.363 392.16L289.44 390.147L295.504 387.366L296.427 389.379L290.363 392.16Z" fill="white"/>
<path d="M288.877 401.554L284.29 403.314C283.377 403.665 282.534 403.831 281.761 403.814C280.984 403.799 280.311 403.592 279.744 403.195C279.178 402.797 278.743 402.205 278.441 401.417C278.189 400.76 278.081 400.162 278.118 399.62C278.155 399.079 278.31 398.583 278.583 398.133C278.851 397.685 279.206 397.27 279.649 396.886L280.336 396.077L284.241 394.578L285.055 396.647L282.15 397.762C281.751 397.915 281.447 398.114 281.239 398.357C281.031 398.6 280.911 398.875 280.878 399.182C280.842 399.497 280.891 399.83 281.026 400.18C281.164 400.541 281.352 400.827 281.59 401.037C281.827 401.247 282.106 401.369 282.427 401.403C282.744 401.444 283.1 401.389 283.493 401.238L285.405 400.504L281.617 390.633L284.292 389.606L288.877 401.554ZM277.678 392.145L282.399 396.424L279.579 397.515L274.862 393.367L274.814 393.244L277.678 392.145Z" fill="white"/>
<path d="M265.55 398.536L264.874 396.426L271.361 394.348L272.036 396.457L265.55 398.536ZM274.336 406.833L270.432 394.646L273.16 393.772L277.065 405.958L274.336 406.833ZM268.044 403.44L267.39 401.398L273.039 399.588L273.694 401.63L268.044 403.44ZM268.77 408.616L268.092 406.498L274.587 404.417L275.265 406.535L268.77 408.616Z" fill="white"/>
<path d="M254.664 399.034L257.405 398.402L257.885 400.564L255.162 401.192C254.54 401.336 254.047 401.6 253.685 401.984C253.324 402.374 253.097 402.877 253.005 403.494C252.914 404.116 252.962 404.835 253.151 405.652L253.283 406.226C253.425 406.842 253.613 407.37 253.847 407.81C254.082 408.254 254.359 408.608 254.678 408.872C254.997 409.135 255.358 409.304 255.76 409.38C256.157 409.457 256.589 409.441 257.057 409.333L259.832 408.693L260.332 410.86L257.557 411.5C256.712 411.695 255.908 411.73 255.146 411.605C254.378 411.481 253.678 411.213 253.048 410.799C252.411 410.386 251.87 409.85 251.423 409.189C250.976 408.529 250.65 407.753 250.444 406.862L250.316 406.306C250.112 405.421 250.065 404.58 250.177 403.785C250.289 402.996 250.541 402.276 250.933 401.626C251.32 400.984 251.829 400.44 252.459 399.994C253.09 399.548 253.825 399.228 254.664 399.034ZM258.696 411.237L255.821 398.768L258.613 398.124L261.488 410.593L258.696 411.237Z" fill="white"/>
<path d="M238.777 404.343L238.404 402.159L245.118 401.011L245.491 403.195L238.777 404.343ZM246.313 413.79L244.156 401.176L246.981 400.693L249.137 413.307L246.313 413.79ZM240.559 409.548L240.198 407.435L246.045 406.435L246.407 408.549L240.559 409.548ZM240.552 414.775L240.177 412.583L246.9 411.433L247.275 413.625L240.552 414.775Z" fill="white"/>
<path d="M232.465 405.709L230.746 415.923L227.576 416.279L230.507 403.073L232.577 402.84L232.465 405.709ZM236.153 415.316L232.221 405.737L231.459 402.966L233.555 402.73L239.315 414.961L236.153 415.316Z" fill="white"/>
<path d="M215.093 414.39L218.156 403.954L221.214 403.883L216.774 416.786L214.841 416.831L215.093 414.39ZM212.111 404.094L215.664 414.377L216.063 416.803L214.103 416.848L209.053 404.165L212.111 404.094ZM212.362 408.853L212.311 406.639L218.98 406.485L219.031 408.699L212.362 408.853Z" fill="white"/>
<path d="M196.264 410.41L196.483 405.256C196.704 405.025 197.037 404.781 197.481 404.524C197.92 404.267 198.478 404.053 199.154 403.883C199.829 403.718 200.63 403.655 201.555 403.694C202.392 403.73 203.147 403.897 203.82 404.195C204.494 404.499 205.065 404.925 205.534 405.473C206.003 406.027 206.356 406.693 206.593 407.471C206.824 408.249 206.918 409.133 206.876 410.122L206.844 410.877C206.802 411.867 206.633 412.739 206.337 413.495C206.041 414.251 205.642 414.882 205.14 415.388C204.637 415.901 204.049 416.28 203.376 416.527C202.703 416.774 201.965 416.881 201.163 416.847C200.021 416.798 199.096 416.574 198.385 416.175C197.675 415.781 197.146 415.254 196.799 414.594C196.445 413.934 196.243 413.183 196.19 412.343L198.948 412.46C198.988 412.89 199.09 413.263 199.252 413.581C199.409 413.899 199.641 414.146 199.951 414.323C200.26 414.506 200.666 414.609 201.169 414.63C201.573 414.647 201.943 414.578 202.278 414.422C202.607 414.272 202.889 414.035 203.126 413.71C203.363 413.386 203.55 412.978 203.688 412.485C203.826 411.998 203.909 411.427 203.937 410.771L203.97 409.999C203.998 409.343 203.964 408.764 203.868 408.261C203.766 407.759 203.605 407.335 203.385 406.992C203.165 406.654 202.88 406.393 202.53 406.208C202.174 406.022 201.756 405.92 201.276 405.899C200.901 405.883 200.584 405.899 200.324 405.947C200.064 406 199.85 406.07 199.682 406.157C199.514 406.25 199.387 406.335 199.301 406.414L199.211 408.539L201.485 408.635L201.401 410.629L196.264 410.41Z" fill="white"/>
<path d="M185.303 404.732L185.533 402.529L192.308 403.237L192.077 405.44L185.303 404.732ZM190.008 415.863L191.337 403.135L194.187 403.433L192.857 416.161L190.008 415.863ZM185.612 410.225L185.835 408.092L191.736 408.709L191.513 410.842L185.612 410.225ZM184.194 415.256L184.425 413.044L191.209 413.753L190.978 415.964L184.194 415.256Z" fill="white"/>
<path d="M171.432 413.244L173.492 400.614L176.311 401.074L179.751 410.015L181.082 401.852L183.91 402.313L181.85 414.943L179.022 414.482L175.574 405.54L174.242 413.702L171.432 413.244Z" fill="white"/>
<path d="M163.433 402.729L160.659 402.09C160.902 401.244 161.31 400.541 161.884 399.982C162.451 399.427 163.148 399.05 163.976 398.85C164.803 398.656 165.727 398.676 166.749 398.912C167.565 399.1 168.264 399.409 168.845 399.837C169.425 400.266 169.881 400.792 170.213 401.415C170.537 402.043 170.734 402.753 170.804 403.545C170.867 404.341 170.791 405.205 170.576 406.135L170.401 406.898C170.186 407.828 169.87 408.636 169.454 409.322C169.037 410.008 168.54 410.56 167.962 410.98C167.384 411.4 166.743 411.676 166.039 411.809C165.335 411.941 164.589 411.916 163.801 411.735C162.739 411.49 161.887 411.092 161.244 410.541C160.602 409.99 160.158 409.334 159.912 408.574C159.661 407.812 159.594 406.994 159.711 406.119L162.495 406.761C162.406 407.252 162.403 407.681 162.486 408.049C162.569 408.423 162.755 408.734 163.047 408.981C163.339 409.229 163.759 409.416 164.307 409.542C164.706 409.634 165.075 409.641 165.412 409.562C165.743 409.482 166.044 409.309 166.317 409.041C166.583 408.771 166.821 408.405 167.03 407.942C167.237 407.485 167.418 406.925 167.57 406.263L167.75 405.484C167.902 404.827 167.99 404.249 168.015 403.75C168.04 403.25 167.994 402.822 167.878 402.464C167.756 402.106 167.562 401.814 167.295 401.59C167.028 401.366 166.677 401.204 166.243 401.104C165.747 400.99 165.315 400.971 164.948 401.049C164.58 401.133 164.271 401.314 164.02 401.593C163.769 401.872 163.574 402.251 163.433 402.729Z" fill="white"/>
<path d="M154.407 409.147L153.619 402.975L149.586 407.722L146.619 406.845L152.923 400.185L154.233 395.752L157.023 396.576L155.713 401.01L157.391 410.029L154.407 409.147Z" fill="white"/>
<path d="M136.913 393.225C136.835 393.427 136.795 393.619 136.794 393.8C136.79 393.988 136.841 394.18 136.947 394.378C137.052 394.576 137.223 394.8 137.459 395.049C137.694 395.303 138.017 395.595 138.43 395.925C138.897 396.307 139.332 396.702 139.733 397.11C140.127 397.52 140.455 397.946 140.717 398.387C140.98 398.828 141.144 399.288 141.21 399.766C141.27 400.242 141.199 400.742 140.995 401.267C140.798 401.775 140.508 402.19 140.125 402.513C139.742 402.836 139.292 403.063 138.776 403.196C138.257 403.334 137.695 403.374 137.089 403.314C136.481 403.261 135.85 403.107 135.194 402.852C134.32 402.513 133.613 402.06 133.073 401.492C132.525 400.927 132.174 400.294 132.019 399.593C131.862 398.897 131.925 398.183 132.209 397.451L134.864 398.482C134.739 398.804 134.697 399.114 134.738 399.413C134.771 399.715 134.897 399.991 135.115 400.239C135.328 400.484 135.636 400.686 136.04 400.843C136.434 400.995 136.787 401.064 137.102 401.047C137.408 401.034 137.669 400.953 137.884 400.804C138.094 400.653 138.245 400.457 138.339 400.217C138.413 400.026 138.431 399.832 138.395 399.635C138.35 399.442 138.259 399.24 138.121 399.029C137.975 398.822 137.783 398.603 137.546 398.372C137.308 398.142 137.028 397.901 136.704 397.65C136.144 397.2 135.665 396.756 135.269 396.32C134.867 395.881 134.558 395.44 134.34 394.997C134.122 394.555 134.005 394.104 133.988 393.645C133.966 393.184 134.051 392.705 134.244 392.207C134.45 391.678 134.736 391.248 135.103 390.919C135.464 390.588 135.894 390.353 136.394 390.214C136.887 390.078 137.43 390.04 138.022 390.101C138.615 390.161 139.242 390.319 139.902 390.576C140.503 390.809 141.066 391.116 141.591 391.495C142.114 391.881 142.551 392.327 142.901 392.833C143.246 393.338 143.464 393.894 143.555 394.501C143.638 395.112 143.547 395.761 143.279 396.45L140.608 395.413C140.748 395.052 140.815 394.726 140.809 394.435C140.8 394.149 140.73 393.892 140.599 393.665C140.461 393.436 140.266 393.234 140.013 393.06C139.76 392.887 139.461 392.733 139.117 392.6C138.718 392.445 138.375 392.374 138.087 392.388C137.791 392.405 137.545 392.489 137.348 392.639C137.152 392.789 137.007 392.984 136.913 393.225Z" fill="white"/>
<path d="M124.376 395.369L131.729 387.354L134.505 388.64L124.828 398.261L123.074 397.448L124.376 395.369ZM126.242 384.813L124.894 395.609L124.182 397.962L122.404 397.138L123.467 383.528L126.242 384.813ZM124.368 389.195L125.299 387.185L131.352 389.988L130.421 391.998L124.368 389.195Z" fill="white"/>
<path d="M116.961 383.201L109.713 390.598L106.908 389.078L116.862 379.917L118.693 380.91L116.961 383.201ZM114.496 393.191L116.745 383.083L117.704 380.374L119.558 381.379L117.293 394.707L114.496 393.191Z" fill="white"/>
<path d="M103.405 374.434L104.573 372.553L110.36 376.146L109.191 378.027L103.405 374.434ZM102.781 386.503L109.531 375.631L111.965 377.142L105.215 388.014L102.781 386.503ZM101.286 379.512L102.417 377.691L107.457 380.82L106.326 382.642L101.286 379.512ZM97.8151 383.42L98.9881 381.531L104.782 385.128L103.609 387.017L97.8151 383.42Z" fill="white"/>
<path d="M96.0098 366.527L98.2721 368.198L96.942 369.969L94.6939 368.309C94.1802 367.929 93.6595 367.727 93.132 367.701C92.601 367.68 92.0712 367.836 91.5428 368.166C91.0108 368.502 90.4959 369.007 89.9981 369.681L89.6482 370.154C89.2723 370.663 88.9934 371.149 88.8116 371.612C88.6264 372.08 88.5376 372.521 88.5453 372.934C88.553 373.348 88.6589 373.732 88.8631 374.087C89.0625 374.438 89.3555 374.757 89.742 375.042L92.0325 376.734L90.7114 378.523L88.4208 376.831C87.7233 376.316 87.1741 375.728 86.7731 375.067C86.3675 374.404 86.1168 373.698 86.0211 372.949C85.9207 372.198 85.9761 371.437 86.1873 370.668C86.3984 369.899 86.7756 369.147 87.3187 368.412L87.6581 367.952C88.1977 367.222 88.8058 366.64 89.4823 366.207C90.1554 365.779 90.8659 365.503 91.6138 365.378C92.3535 365.254 93.0979 365.287 93.847 365.476C94.5961 365.665 95.317 366.015 96.0098 366.527ZM89.3611 377.525L96.9642 367.232L99.2689 368.934L91.6658 379.228L89.3611 377.525Z" fill="white"/>
<path d="M81.63 357.888L83.0475 356.186L88.2812 360.546L86.8637 362.248L81.63 357.888ZM79.3415 369.754L87.5316 359.921L89.7332 361.755L81.543 371.588L79.3415 369.754ZM78.829 362.624L80.2015 360.976L84.7599 364.773L83.3874 366.421L78.829 362.624ZM74.8506 366.013L76.2738 364.305L81.5142 368.67L80.0911 370.378L74.8506 366.013Z" fill="white"/>
<path d="M76.4534 353.96L67.5677 359.281L65.2392 357.1L77.1882 350.759L78.7084 352.183L76.4534 353.96ZM71.5384 363L76.2738 353.792L77.8874 351.414L79.4269 352.856L73.8605 365.175L71.5384 363Z" fill="white"/>
<path d="M65.651 342.204L67.2509 340.672L71.9612 345.592L70.3613 347.124L65.651 342.204ZM62.0427 353.737L71.2866 344.888L73.2679 346.957L64.0241 355.807L62.0427 353.737ZM62.3352 346.595L63.8843 345.112L67.9869 349.397L66.4377 350.88L62.3352 346.595ZM58.0009 349.515L59.6072 347.977L64.3236 352.904L62.7173 354.442L58.0009 349.515Z" fill="white"/>
<path d="M58.977 334.447L60.658 333.005L64.8642 337.907L63.1832 339.35L58.977 334.447ZM54.5166 345.499L64.229 337.167L66.0946 339.342L56.3822 347.674L54.5166 345.499Z" fill="white"/>
<path d="M48.0712 327.635L48.5245 327.287C49.2962 326.695 50.0709 326.271 50.8486 326.014C51.6227 325.752 52.3758 325.651 53.1077 325.71C53.8361 325.764 54.5216 325.969 55.1642 326.325C55.7986 326.68 56.3636 327.181 56.8594 327.827C57.3552 328.473 57.6943 329.151 57.8766 329.861C58.0544 330.574 58.0786 331.293 57.9495 332.02C57.8167 332.742 57.5256 333.446 57.076 334.131C56.6265 334.815 56.0158 335.454 55.2441 336.046L54.7909 336.393C54.0192 336.985 53.2445 337.41 52.4668 337.667C51.6844 337.927 50.9291 338.031 50.2007 337.976C49.4688 337.918 48.7838 337.708 48.1458 337.348C47.5032 336.992 46.934 336.491 46.4383 335.845C45.9425 335.199 45.6058 334.519 45.428 333.806C45.2457 333.097 45.2226 332.383 45.3589 331.666C45.4916 330.944 45.7851 330.238 46.2393 329.55C46.6889 328.865 47.2995 328.227 48.0712 327.635ZM50.2847 329.581L49.8175 329.94C49.3014 330.336 48.8815 330.732 48.5577 331.128C48.2293 331.528 47.998 331.919 47.8639 332.303C47.7298 332.686 47.6952 333.06 47.7601 333.424C47.8204 333.791 47.9771 334.14 48.2304 334.47C48.4943 334.814 48.7941 335.06 49.1297 335.209C49.4607 335.361 49.8288 335.422 50.2339 335.392C50.6355 335.357 51.0719 335.233 51.543 335.019C52.0059 334.804 52.4954 334.499 53.0114 334.103L53.4786 333.744C53.99 333.352 54.4117 332.958 54.7437 332.563C55.0675 332.167 55.2988 331.776 55.4375 331.389C55.5763 331.001 55.6173 330.627 55.5606 330.264C55.5003 329.897 55.3382 329.541 55.0743 329.197C54.8211 328.867 54.5266 328.627 54.191 328.479C53.8518 328.325 53.4773 328.266 53.0675 328.299C52.6577 328.333 52.2213 328.457 51.7584 328.672C51.2873 328.886 50.796 329.189 50.2847 329.581Z" fill="white"/>
<path d="M45.8763 320.412L47.6722 323.081L45.8274 324.322L44.0315 321.653C43.7665 321.26 43.4883 320.988 43.1967 320.838C42.9019 320.683 42.6027 320.627 42.2989 320.669C41.9871 320.709 41.6853 320.827 41.3937 321.024C41.0923 321.227 40.852 321.473 40.6729 321.763C40.4856 322.052 40.3935 322.371 40.3967 322.722C40.3966 323.068 40.529 323.438 40.7939 323.832L42.0108 325.64L50.7829 319.738L52.3825 322.115L41.7656 329.259L38.9491 325.074C38.3799 324.228 38.0456 323.4 37.9463 322.591C37.8436 321.778 37.9517 321.031 38.2705 320.35C38.5812 319.668 39.0793 319.096 39.7647 318.635C40.4502 318.173 41.1552 317.935 41.88 317.921C42.6015 317.902 43.3076 318.101 43.9985 318.519C44.6812 318.935 45.3071 319.566 45.8763 320.412Z" fill="white"/>
<path d="M34.2363 317.808L33.052 315.751L39.4452 308.519L29.9858 310.427L28.8015 308.371L42.1278 305.869L43.0884 307.537L34.2363 317.808ZM34.9206 318.996L33.7143 316.901L41.7085 311.78L44.5798 310.126L46.0098 312.609L34.9206 318.996ZM29.3235 309.277L28.1128 307.175L39.2021 300.789L40.6364 303.279L37.7651 304.933L29.3235 309.277Z" fill="white"/>
<path d="M32.3456 291.684L34.3378 290.716L37.3145 296.843L35.3223 297.811L32.3456 291.684ZM25.3779 301.558L36.8881 295.965L38.1403 298.542L26.63 304.135L25.3779 301.558ZM27.8442 294.848L29.7731 293.911L32.3657 299.247L30.4368 300.184L27.8442 294.848ZM22.8237 296.3L24.8238 295.329L27.8043 301.463L25.8042 302.435L22.8237 296.3Z" fill="white"/>
<path d="M17.8384 284.469L29.6613 279.572L30.7544 282.211L24.9631 289.842L32.6041 286.677L33.7005 289.324L21.8776 294.221L20.7812 291.574L26.5691 283.935L18.9281 287.1L17.8384 284.469Z" fill="white"/>
<path d="M15.2129 277.006L27.3082 272.827L28.241 275.527L16.1457 279.706L15.2129 277.006ZM13.9415 273.326L16.0432 272.6L19.4931 282.585L17.3913 283.311L13.9415 273.326Z" fill="white"/>
<path d="M21.8572 260.378L10.3746 260.541L10.0285 259.115L11.2413 258.224L22.9682 258.173L23.3474 259.736L21.8572 260.378ZM11.2099 263.983L21.639 259.255L23.2293 259.249L23.6604 261.025L11.8793 266.742L11.2099 263.983ZM20.3357 254.145L8.96534 254.733L8.298 251.983L21.3889 251.664L21.8159 253.424L20.3357 254.145ZM9.80264 258.184L20.1346 253.018L21.6998 252.945L22.077 254.5L11.6327 259.874L10.1487 259.61L9.80264 258.184Z" fill="white"/>
<path d="M16.9696 239.778L19.1513 239.396L20.325 246.106L18.1433 246.487L16.9696 239.778ZM7.5514 247.35L20.1569 245.145L20.6506 247.967L8.04511 250.172L7.5514 247.35ZM11.7706 241.579L13.8831 241.21L14.9053 247.054L12.7929 247.423L11.7706 241.579ZM6.54431 241.592L8.73468 241.209L9.90988 247.928L7.71951 248.311L6.54431 241.592Z" fill="white"/>
<path d="M7.43596 227.793L18.041 230.207L18.3003 233.255L5.14794 229.619L4.98407 227.692L7.43596 227.793ZM17.5286 224.182L7.48437 228.362L5.08761 228.91L4.92151 226.957L17.2694 221.134L17.5286 224.182ZM12.794 224.726L15.0008 224.538L15.5662 231.185L13.3593 231.373L12.794 224.726Z" fill="white"/>
<path d="M4.45125 220.203L4.33747 215.292C4.31481 214.313 4.44165 213.463 4.71799 212.742C4.99419 212.015 5.41485 211.451 5.97996 211.051C6.54506 210.651 7.24938 210.442 8.09291 210.422C8.79584 210.406 9.39598 210.506 9.89333 210.723C10.3907 210.94 10.8053 211.253 11.1371 211.661C11.4687 212.064 11.7405 212.538 11.9525 213.084L12.4837 214.004L12.5805 218.186L10.3579 218.255L10.2859 215.145C10.276 214.717 10.1916 214.365 10.0328 214.087C9.87397 213.809 9.65528 213.604 9.37671 213.469C9.09214 213.329 8.76241 213.264 8.38751 213.272C8.00089 213.281 7.66869 213.362 7.39091 213.515C7.11313 213.668 6.90434 213.89 6.76454 214.18C6.61875 214.465 6.55074 214.818 6.56051 215.24L6.60793 217.287L17.1783 217.043L17.2447 219.907L4.45125 220.203ZM17.0806 212.825L11.4622 215.83L11.3834 212.807L16.8778 209.761L17.0096 209.758L17.0806 212.825Z" fill="white"/>
<path d="M15.1493 198.976L17.3628 199.052L17.1263 205.86L14.9128 205.783L15.1493 198.976ZM4.37102 204.441L17.1602 204.885L17.0607 207.748L4.27151 207.304L4.37102 204.441ZM9.69045 199.665L11.8337 199.74L11.6277 205.669L9.48442 205.594L9.69045 199.665ZM4.574 198.599L6.79629 198.677L6.55943 205.493L4.33714 205.415L4.574 198.599Z" fill="white"/>
<path d="M18.3838 187.99L18.0486 190.782L15.8516 190.501L16.1847 187.726C16.2608 187.092 16.1797 186.539 15.9412 186.068C15.6968 185.596 15.3003 185.212 14.7516 184.916C14.1971 184.619 13.5039 184.421 12.672 184.321L12.0873 184.251C11.459 184.175 10.8986 184.173 10.4062 184.244C9.90799 184.314 9.48097 184.454 9.12516 184.665C8.76934 184.876 8.48764 185.158 8.28005 185.511C8.07316 185.858 7.94108 186.27 7.88381 186.747L7.5444 189.574L5.33662 189.309L5.67603 186.482C5.77939 185.621 6.01911 184.853 6.39519 184.178C6.77197 183.497 7.26196 182.931 7.86515 182.478C8.46905 182.019 9.15752 181.692 9.93058 181.495C10.7036 181.299 11.5439 181.255 12.4515 181.364L13.0187 181.432C13.9204 181.541 14.7265 181.782 15.4369 182.156C16.1416 182.53 16.733 183.011 17.2111 183.6C17.6842 184.182 18.0236 184.845 18.2293 185.59C18.4349 186.335 18.4864 187.134 18.3838 187.99ZM5.5367 187.642L18.2424 189.168L17.9008 192.013L5.1952 190.487L5.5367 187.642Z" fill="white"/>
<path d="M18.7587 171.258L20.939 171.648L19.7396 178.354L17.5594 177.964L18.7587 171.258ZM7.31447 175.14L19.9114 177.393L19.4069 180.214L6.80996 177.96L7.31447 175.14ZM13.2572 171.167L15.3682 171.545L14.3236 177.385L12.2126 177.007L13.2572 171.167ZM8.34359 169.387L10.5325 169.778L9.33158 176.492L7.14269 176.1L8.34359 169.387Z" fill="white"/>
<path d="M19.5601 164.995L10.535 159.914L11.2756 156.81L22.705 164.046L22.2215 166.073L19.5601 164.995ZM9.27228 165.205L19.6173 164.755L22.4826 164.978L21.993 167.03L8.53381 168.3L9.27228 165.205Z" fill="white"/>
<path d="M17.1657 145.983L25.9537 152.391L24.9876 155.293L14.3422 146.756L14.9529 144.922L17.1657 145.983ZM27.8636 146.654L16.9852 146.525L14.567 146.081L15.1861 144.221L28.8297 143.752L27.8636 146.654ZM23.2994 145.283L25.4009 145.982L23.2938 152.312L21.1924 151.612L23.2994 145.283Z" fill="white"/>
<path d="M26.7892 130.768L31.5703 132.707C31.7137 132.993 31.8315 133.388 31.9238 133.893C32.0183 134.393 32.0324 134.99 31.966 135.684C31.8942 136.376 31.6844 137.151 31.3366 138.008C31.0217 138.785 30.6106 139.44 30.1033 139.974C29.5905 140.506 28.9972 140.901 28.3236 141.159C27.6445 141.415 26.8987 141.523 26.0861 141.485C25.2757 141.441 24.4117 141.233 23.494 140.861L22.7935 140.577C21.8758 140.204 21.1109 139.752 20.4986 139.219C19.8863 138.687 19.4261 138.098 19.1179 137.455C18.8043 136.809 18.6443 136.128 18.6379 135.411C18.6315 134.694 18.7791 133.963 19.0807 133.22C19.51 132.161 20.0322 131.364 20.6473 130.829C21.2569 130.293 21.9309 129.971 22.6691 129.866C23.4095 129.755 24.1844 129.817 24.994 130.05L23.957 132.608C23.5386 132.501 23.1525 132.471 22.7986 132.517C22.447 132.558 22.1357 132.694 21.8648 132.926C21.5884 133.155 21.3556 133.503 21.1663 133.97C21.0143 134.345 20.9555 134.716 20.9897 135.084C21.0206 135.445 21.149 135.791 21.3749 136.122C21.6007 136.454 21.9224 136.768 22.3399 137.064C22.752 137.357 23.2621 137.627 23.8703 137.874L24.5871 138.165C25.1952 138.411 25.7521 138.574 26.2577 138.652C26.7655 138.725 27.2182 138.716 27.6157 138.624C28.0079 138.53 28.3498 138.35 28.6416 138.082C28.9356 137.81 29.1728 137.451 29.3534 137.005C29.4943 136.658 29.586 136.353 29.6286 136.093C29.6657 135.829 29.6717 135.604 29.6464 135.417C29.6158 135.227 29.5778 135.079 29.5326 134.972L27.5615 134.173L26.7062 136.283L24.8573 135.533L26.7892 130.768Z" fill="white"/>
<path d="M36.1478 121.607L38.1435 122.567L35.1896 128.705L33.1939 127.744L36.1478 121.607ZM24.0818 122.276L35.6127 127.826L34.3701 130.407L22.8392 124.858L24.0818 122.276ZM30.8723 120.043L32.8047 120.973L30.2319 126.319L28.2996 125.389L30.8723 120.043ZM26.6164 117.01L28.6201 117.974L25.6623 124.119L23.6587 123.155L26.6164 117.01Z" fill="white"/>
<path d="M32.6929 105.917L43.8752 112.139L42.4862 114.635L32.9088 114.838L40.1357 118.859L38.7425 121.363L27.5603 115.141L28.9535 112.637L38.5353 112.427L31.3083 108.405L32.6929 105.917Z" fill="white"/>
<path d="M45.2528 101.942L46.7903 99.545C47.5048 100.059 48.0286 100.68 48.3617 101.409C48.693 102.13 48.8133 102.914 48.7226 103.76C48.627 104.604 48.296 105.467 47.7298 106.35C47.2774 107.055 46.7516 107.609 46.1525 108.011C45.5533 108.414 44.9044 108.666 44.2057 108.767C43.5052 108.861 42.7704 108.807 42.0013 108.606C41.2304 108.397 40.443 108.035 39.6391 107.519L38.9807 107.097C38.1768 106.581 37.5223 106.012 37.0171 105.389C36.512 104.765 36.1591 104.111 35.9585 103.425C35.7578 102.74 35.7138 102.043 35.8265 101.336C35.9391 100.628 36.2137 99.9343 36.6503 99.2537C37.2387 98.3364 37.9006 97.668 38.636 97.2487C39.3713 96.8294 40.1383 96.6321 40.9368 96.657C41.7384 96.677 42.5313 96.8897 43.3154 97.2952L41.7731 99.6995C41.3413 99.4504 40.938 99.3031 40.5634 99.2577C40.1838 99.2091 39.8283 99.2804 39.4969 99.4716C39.1654 99.6627 38.8479 99.995 38.5442 100.469C38.3227 100.814 38.1923 101.158 38.1528 101.502C38.1166 101.841 38.1787 102.183 38.3392 102.53C38.5029 102.872 38.7675 103.219 39.1329 103.571C39.4934 103.921 39.9597 104.279 40.5319 104.646L41.2051 105.078C41.7722 105.442 42.2867 105.72 42.7484 105.911C43.2102 106.103 43.6289 106.205 44.0045 106.216C44.3833 106.222 44.7232 106.137 45.024 105.961C45.3248 105.785 45.5955 105.51 45.8359 105.135C46.1111 104.706 46.2739 104.306 46.3242 103.934C46.3696 103.56 46.3032 103.207 46.1251 102.877C45.947 102.547 45.6562 102.236 45.2528 101.942Z" fill="white"/>
<path d="M41.9813 91.634L48.0604 92.9586L44.9386 87.5685L46.7585 85.0666L50.923 93.2368L54.6616 95.9563L52.9503 98.3088L49.2117 95.5893L40.151 94.1501L41.9813 91.634Z" fill="white"/>
<path d="M62.6422 80.6622C62.4782 80.5205 62.3108 80.4184 62.1401 80.3561C61.965 80.2899 61.7665 80.2732 61.5445 80.306C61.3226 80.3387 61.0547 80.4247 60.7408 80.5639C60.4225 80.6992 60.0387 80.9058 59.5895 81.1836C59.0722 81.4955 58.5543 81.772 58.036 82.0133C57.5171 82.2464 57.0058 82.4124 56.502 82.5114C55.9983 82.6104 55.5102 82.6106 55.0377 82.5121C54.5691 82.4091 54.122 82.1737 53.6964 81.8059C53.2841 81.4496 52.9903 81.0369 52.8149 80.5678C52.6395 80.0987 52.5761 79.5986 52.6246 79.0675C52.6688 78.5325 52.8203 77.9897 53.0793 77.4391C53.3339 76.8847 53.6911 76.3415 54.1508 75.8095C54.7638 75.1002 55.4285 74.5865 56.1448 74.2685C56.8605 73.9422 57.5747 73.8238 58.2874 73.9131C58.9957 73.9986 59.6468 74.2981 60.2409 74.8115L58.3788 76.966C58.1173 76.7399 57.8389 76.5961 57.5436 76.5345C57.2477 76.4647 56.9464 76.4908 56.6395 76.6128C56.3365 76.7304 56.0433 76.9533 55.7597 77.2813C55.4839 77.6005 55.3009 77.9109 55.2107 78.2124C55.1198 78.5056 55.1086 78.7786 55.1768 79.0311C55.2489 79.2793 55.3824 79.4877 55.5775 79.6563C55.7327 79.7903 55.909 79.8731 56.1065 79.9044C56.3035 79.9274 56.5244 79.9092 56.7693 79.8499C57.0136 79.7822 57.2842 79.6753 57.5809 79.5291C57.8777 79.3828 58.1988 79.1995 58.5441 78.9791C59.1564 78.6022 59.7347 78.3004 60.279 78.0739C60.8272 77.8429 61.3464 77.6991 61.8366 77.6426C62.3268 77.5862 62.7909 77.6272 63.2289 77.7656C63.6707 77.8996 64.0933 78.1409 64.4967 78.4896C64.9267 78.8612 65.2352 79.2749 65.4221 79.7307C65.6128 80.1821 65.6897 80.6667 65.6526 81.1845C65.6149 81.6941 65.4682 82.2178 65.2124 82.7557C64.9566 83.2936 64.597 83.8308 64.1334 84.3672C63.7119 84.8548 63.2342 85.2822 62.7001 85.6493C62.1616 86.0125 61.5949 86.2739 61 86.4336C60.4089 86.5888 59.8121 86.6073 59.2094 86.4892C58.6062 86.3628 58.0252 86.0582 57.4667 85.5755L59.3402 83.4076C59.6328 83.6605 59.9174 83.833 60.1942 83.925C60.4664 84.0131 60.7317 84.0333 60.9899 83.9854C61.252 83.9331 61.5073 83.8169 61.7559 83.6368C62.0045 83.4566 62.2495 83.2269 62.4909 82.9477C62.7706 82.624 62.9523 82.3242 63.036 82.048C63.1192 81.7637 63.1231 81.5037 63.0478 81.2683C62.9725 81.0328 62.8373 80.8308 62.6422 80.6622Z" fill="white"/>
<path d="M65.5608 67.2975L70.6214 76.925L68.4744 79.1034L62.6855 66.7466L64.0428 65.3695L65.5608 67.2975ZM74.866 72.6183L65.1598 67.7044L63.1852 66.2396L64.561 64.8436L77.013 70.4399L74.866 72.6183ZM71.3744 69.3746L72.9519 70.9293L68.2693 75.6805L66.6918 74.1258L71.3744 69.3746Z" fill="white"/>
<path d="M79.4141 64.4779L74.8871 55.1624L77.2627 53.0327L82.5394 65.4886L80.9885 66.8791L79.4141 64.4779ZM70.8363 58.7941L79.5973 64.3136L81.8261 66.1281L80.2555 67.5362L68.4673 60.9179L70.8363 58.7941Z" fill="white"/>
<path d="M91.4603 55.2176L92.8467 56.9449L87.5344 61.2084L86.1481 59.481L91.4603 55.2176ZM80.2855 50.6176L88.2953 60.5977L86.0607 62.3911L78.0509 52.411L80.2855 50.6176ZM87.3751 51.5316L88.7174 53.2041L84.0906 56.9175L82.7484 55.245L87.3751 51.5316ZM84.8437 46.9593L86.2355 48.6935L80.9164 52.9624L79.5246 51.2282L84.8437 46.9593Z" fill="white"/>
<path d="M101.901 50.4531L99.568 52.0233L98.346 50.176L100.665 48.6156C101.195 48.259 101.56 47.8365 101.761 47.3481C101.959 46.8549 101.991 46.3038 101.856 45.695C101.719 45.0813 101.416 44.4269 100.948 43.7317L100.62 43.2432C100.266 42.7181 99.9022 42.2923 99.527 41.9657C99.1485 41.6341 98.7632 41.4026 98.371 41.271C97.9787 41.1395 97.5813 41.1103 97.1786 41.1836C96.7807 41.2535 96.3825 41.4226 95.9839 41.6909L93.6213 43.2807L92.3799 41.4359L94.7424 39.8461C95.4619 39.3619 96.1999 39.0418 96.9566 38.8858C97.7181 38.7265 98.4672 38.7273 99.2041 38.8883C99.9458 39.046 100.644 39.3533 101.297 39.8104C101.951 40.2675 102.533 40.8752 103.043 41.6336L103.362 42.1075C103.869 42.861 104.213 43.629 104.393 44.4116C104.571 45.1892 104.593 45.9513 104.459 46.6978C104.328 47.4362 104.047 48.1264 103.618 48.7686C103.188 49.4107 102.616 49.9723 101.901 50.4531ZM93.7726 40.4987L100.917 51.1155L98.5398 52.7152L91.3955 42.0983L93.7726 40.4987Z" fill="white"/>
<path d="M115.221 39.5599L116.347 41.4669L110.482 44.9314L109.356 43.0244L115.221 39.5599ZM104.814 33.4172L111.322 44.4352L108.855 45.8925L102.347 34.8745L104.814 33.4172ZM111.701 35.3304L112.792 37.1768L107.684 40.1943L106.593 38.3478L111.701 35.3304ZM109.846 30.4444L110.977 32.359L105.105 35.8279L103.974 33.9134L109.846 30.4444Z" fill="white"/>
<path d="M119.873 36.3997L117.818 26.2484L120.651 24.7801L122.646 38.1597L120.797 39.1183L119.873 36.3997ZM112.988 28.752L120.091 36.2865L121.796 38.6006L119.923 39.5713L110.164 30.2162L112.988 28.752Z" fill="white"/>
<path d="M135.26 29.8209L136.161 31.8443L129.938 34.6143L129.037 32.5909L135.26 29.8209ZM125.625 22.5266L130.829 34.2176L128.212 35.3828L123.008 23.6918L125.625 22.5266ZM132.248 25.2161L133.121 27.1753L127.701 29.5878L126.829 27.6286L132.248 25.2161ZM130.965 20.1498L131.869 22.1813L125.638 24.9548L124.734 22.9234L130.965 20.1498Z" fill="white"/>
<path d="M144.497 26.2473L145.29 28.3151L139.259 30.6298L138.466 28.562L144.497 26.2473ZM135.585 18.3331L140.17 30.2802L137.495 31.3069L132.91 19.3598L135.585 18.3331Z" fill="white"/>
<path d="M154.21 18.377L154.385 18.921C154.682 19.8473 154.82 20.7198 154.799 21.5386C154.784 22.3556 154.625 23.0987 154.322 23.7678C154.026 24.4351 153.601 25.0111 153.049 25.4957C152.5 25.9729 151.838 26.3357 151.062 26.5842C150.287 26.8327 149.534 26.923 148.805 26.8552C148.074 26.7818 147.388 26.5616 146.748 26.1946C146.113 25.8258 145.549 25.3143 145.056 24.6599C144.564 24.0056 144.169 23.2153 143.872 22.289L143.698 21.745C143.401 20.8187 143.263 19.9462 143.284 19.1274C143.303 18.303 143.46 17.5571 143.757 16.8898C144.06 16.2207 144.488 15.6467 145.042 15.1677C145.595 14.6831 146.259 14.3165 147.034 14.0681C147.81 13.8196 148.563 13.732 149.294 13.8054C150.023 13.8733 150.703 14.0925 151.332 14.463C151.967 14.8318 152.532 15.3462 153.026 16.0061C153.519 16.6604 153.914 17.4507 154.21 18.377ZM151.631 19.8032L151.451 19.2425C151.253 18.6231 151.022 18.0941 150.758 17.6556C150.493 17.2114 150.203 16.8615 149.887 16.6058C149.571 16.3501 149.231 16.1914 148.867 16.1297C148.501 16.0624 148.119 16.0922 147.723 16.2191C147.31 16.3514 146.977 16.5504 146.724 16.8162C146.469 17.0763 146.287 17.4022 146.179 17.7937C146.076 18.1835 146.046 18.6362 146.088 19.1519C146.134 19.6601 146.256 20.224 146.454 20.8433L146.634 21.4041C146.831 22.0179 147.059 22.5478 147.319 22.9937C147.582 23.4322 147.873 23.7822 148.19 24.0434C148.508 24.3047 148.847 24.4699 149.207 24.539C149.574 24.6063 149.963 24.5738 150.376 24.4415C150.772 24.3146 151.097 24.1182 151.35 23.8525C151.609 23.585 151.792 23.2527 151.898 22.8555C152.005 22.4584 152.035 22.0057 151.989 21.4974C151.947 20.9818 151.828 20.417 151.631 19.8032Z" fill="white"/>
<path d="M162.303 18.5577L159.183 19.34L158.642 17.1831L161.762 16.4008C162.223 16.2854 162.573 16.1161 162.813 15.8928C163.058 15.6681 163.213 15.4058 163.277 15.1059C163.345 14.7989 163.336 14.4749 163.251 14.1339C163.162 13.7815 163.012 13.4718 162.8 13.2048C162.593 12.9307 162.323 12.7354 161.992 12.6191C161.666 12.5014 161.274 12.5002 160.813 12.6157L158.699 13.1457L161.27 23.4016L158.491 24.0983L155.379 11.6856L160.272 10.4588C161.261 10.2108 162.153 10.1776 162.948 10.3589C163.748 10.5389 164.414 10.8944 164.946 11.4255C165.482 11.9496 165.85 12.6123 166.051 13.4136C166.252 14.215 166.236 14.959 166.004 15.6455C165.777 16.3306 165.349 16.9271 164.722 17.4348C164.098 17.9355 163.292 18.3098 162.303 18.5577Z" fill="white"/>
<path d="M168.066 8.57467L170.402 8.15683L175.041 16.6216L176.449 7.07509L178.785 6.65725L176.626 20.0434L174.731 20.3824L168.066 8.57467ZM166.716 8.81608L169.095 8.39051L171.206 17.6468L171.79 20.9085L168.969 21.413L166.716 8.81608ZM177.756 6.84141L180.144 6.41428L182.397 19.0112L179.568 19.5173L178.984 16.2556L177.756 6.84141Z" fill="white"/>
<path d="M193.627 15.5357L193.866 17.7376L187.094 18.4714L186.855 16.2695L193.627 15.5357ZM186.685 5.64393L188.064 18.3663L185.215 18.675L183.837 5.9526L186.685 5.64393ZM192.168 10.2303L192.399 12.3624L186.501 13.0015L186.27 10.8694L192.168 10.2303ZM192.496 5.01427L192.735 7.22496L185.955 7.95972L185.715 5.74903L192.496 5.01427Z" fill="white"/>
<path d="M204.673 4.31066L205.315 17.0914L202.462 17.2347L197.219 9.21696L197.634 17.4771L194.772 17.6207L194.131 4.83996L196.992 4.69629L202.244 12.7136L201.829 4.45345L204.673 4.31066Z" fill="white"/>
<path d="M214.603 4.31657L214.405 17.1119L211.549 17.0678L211.747 4.27246L214.603 4.31657ZM218.496 4.37668L218.461 6.60005L207.898 6.43694L207.933 4.21357L218.496 4.37668Z" fill="white"/>
<path d="M226.661 16.0776L230.36 5.20582L231.819 5.35833L232.252 6.79976L228.366 17.864L226.766 17.6969L226.661 16.0776ZM226.837 4.83778L227.792 16.2488L227.264 17.749L225.446 17.559L224.013 4.54281L226.837 4.83778ZM233.043 16.7356L236.304 5.82682L239.119 6.12088L235.027 18.5599L233.226 18.3718L233.043 16.7356ZM232.772 5.45787L234.172 16.9242L233.715 18.4229L232.124 18.2567L230.566 6.61476L231.312 5.30536L232.772 5.45787Z" fill="white"/>
<path d="M248.802 18.5414L248.42 20.7231L241.711 19.5494L242.092 17.3677L248.802 18.5414ZM244.877 7.11202L242.672 19.7175L239.849 19.2238L242.054 6.61831L244.877 7.11202ZM248.872 13.0395L248.502 15.152L242.659 14.1297L243.028 12.0173L248.872 13.0395ZM250.634 8.11912L250.251 10.3095L243.532 9.13429L243.916 6.94392L250.634 8.11912Z" fill="white"/>
<path d="M262.16 13.2948L256.329 22.4765L253.371 21.6989L261.206 10.5269L263.076 11.0184L262.16 13.2948ZM262.177 24.0138L261.607 13.1496L261.895 10.7078L263.79 11.2061L265.136 24.7914L262.177 24.0138ZM263.252 19.3709L262.689 21.513L256.238 19.817L256.801 17.675L263.252 19.3709Z" fill="white"/>
<path d="M270.864 13.1589L275.526 14.7107C276.454 15.0198 277.211 15.4262 277.797 15.93C278.388 16.4356 278.776 17.0219 278.962 17.6888C279.148 18.3558 279.107 19.0896 278.841 19.8901C278.619 20.5573 278.321 21.0882 277.949 21.4831C277.577 21.8779 277.142 22.1625 276.646 22.3368C276.155 22.513 275.617 22.6087 275.031 22.6237L273.986 22.8131L270.017 21.4917L270.702 19.3764L273.655 20.3591C274.06 20.4942 274.421 20.5339 274.736 20.4782C275.051 20.4225 275.318 20.2862 275.539 20.0693C275.767 19.8487 275.94 19.5605 276.058 19.2047C276.18 18.8378 276.216 18.4978 276.166 18.1847C276.116 17.8715 275.978 17.6002 275.752 17.3705C275.533 17.1371 275.224 16.9538 274.823 16.8205L272.88 16.1737L269.541 26.2057L266.822 25.3007L270.864 13.1589ZM273.543 27.5382L272.613 21.235L275.484 22.1816L276.495 28.382L276.454 28.507L273.543 27.5382Z" fill="white"/>
<path d="M287.751 30.6005L286.926 32.6561L280.604 30.1204L281.429 28.0647L287.751 30.6005ZM286.274 18.6065L281.51 30.4836L278.85 29.4169L283.614 17.5398L286.274 18.6065ZM288.957 25.232L288.159 27.2224L282.652 25.0139L283.451 23.0235L288.957 25.232ZM291.698 20.7823L290.87 22.8461L284.54 20.3071L285.368 18.2433L291.698 20.7823Z" fill="white"/>
<path d="M296.131 36.9627L293.615 35.7055L294.621 33.7321L297.121 34.9814C297.692 35.2669 298.24 35.3768 298.764 35.3112C299.291 35.2403 299.786 34.9965 300.25 34.5797C300.716 34.1577 301.136 33.572 301.511 32.8224L301.774 32.2957C302.057 31.7296 302.248 31.2029 302.348 30.7154C302.45 30.2228 302.461 29.7734 302.383 29.3672C302.304 28.9611 302.134 28.6008 301.871 28.2864C301.615 27.9747 301.271 27.7114 300.841 27.4967L298.294 26.2238L299.288 24.2347L301.835 25.5075C302.611 25.8952 303.253 26.3798 303.762 26.9614C304.276 27.5456 304.644 28.198 304.867 28.9185C305.095 29.6417 305.171 30.4003 305.095 31.1943C305.02 31.9883 304.777 32.7941 304.369 33.6118L304.113 34.1228C303.707 34.9352 303.208 35.6127 302.616 36.1553C302.027 36.6926 301.374 37.0872 300.659 37.3389C299.952 37.588 299.213 37.6838 298.442 37.6264C297.672 37.5689 296.902 37.3477 296.131 36.9627ZM300.79 24.985L295.07 36.4323L292.507 35.1516L298.227 23.7043L300.79 24.985Z" fill="white"/>
<path d="M311.08 42.5477L309.982 44.471L304.067 41.0933L305.165 39.17L311.08 42.5477ZM311.26 30.4644L304.914 41.5771L302.426 40.1563L308.772 29.0436L311.26 30.4644ZM313.01 37.3951L311.947 39.2573L306.795 36.3155L307.859 34.4532L313.01 37.3951ZM316.335 33.3627L315.233 35.2937L309.31 31.9116L310.413 29.9806L316.335 33.3627Z" fill="white"/>
<path d="M317.268 45.7233L325.092 38.9361L327.764 40.6783L317.102 49.0038L315.357 47.8663L317.268 45.7233ZM320.534 35.9652L317.475 45.8576L316.3 48.4806L314.533 47.3288L317.869 34.2278L320.534 35.9652Z" fill="white"/>
<path d="M336.374 50.1405L327.377 56.2522L324.971 54.3639L336.598 47.2214L338.119 48.4151L336.374 50.1405ZM332.134 59.9852L335.925 49.7878L337.158 47.6609L338.7 48.8709L334.54 61.8735L332.134 59.9852ZM334.964 56.1509L333.597 57.8933L328.349 53.775L329.716 52.0326L334.964 56.1509Z" fill="white"/>
<path d="M348.037 64.8505L344.593 68.692C344.276 68.73 343.864 68.7069 343.357 68.6225C342.855 68.542 342.288 68.353 341.658 68.0555C341.032 67.7535 340.374 67.2936 339.684 66.6756C339.06 66.1163 338.583 65.5075 338.253 64.8491C337.926 64.1865 337.756 63.4945 337.741 62.7733C337.731 62.0478 337.881 61.3093 338.193 60.5578C338.509 59.8103 338.997 59.0679 339.658 58.3306L340.163 57.7678C340.824 57.0304 341.509 56.464 342.218 56.0685C342.926 55.673 343.636 55.4393 344.345 55.3674C345.059 55.2911 345.754 55.3714 346.431 55.6083C347.108 55.8452 347.745 56.2316 348.343 56.7675C349.194 57.5302 349.766 58.2915 350.061 59.0513C350.359 59.8068 350.433 60.5497 350.282 61.2799C350.135 62.0141 349.815 62.7224 349.321 63.405L347.266 61.5627C347.508 61.2051 347.667 60.8521 347.744 60.5035C347.825 60.1588 347.802 59.8198 347.676 59.4864C347.554 59.1487 347.305 58.8117 346.93 58.4753C346.629 58.2054 346.299 58.0242 345.942 57.9317C345.592 57.8387 345.223 57.8423 344.834 57.9423C344.446 58.0424 344.041 58.2387 343.622 58.5313C343.206 58.8196 342.779 59.208 342.341 59.6966L341.825 60.2725C341.387 60.7612 341.045 61.23 340.8 61.6791C340.559 62.132 340.414 62.5611 340.366 62.9662C340.321 63.367 340.375 63.7499 340.528 64.115C340.685 64.4841 340.942 64.8289 341.3 65.1497C341.579 65.4 341.835 65.5894 342.066 65.7179C342.301 65.842 342.511 65.9239 342.695 65.9636C342.884 65.9989 343.036 66.0135 343.152 66.0071L344.572 64.4234L342.877 62.9039L344.209 61.4184L348.037 64.8505Z" fill="white"/>
<path d="M352.581 75.8171L351.009 77.3775L346.21 72.5436L347.782 70.9831L352.581 75.8171ZM355.979 64.2201L346.897 73.2359L344.879 71.2025L353.96 62.1867L355.979 64.2201ZM355.816 71.3666L354.294 72.8775L350.115 68.6673L351.637 67.1564L355.816 71.3666ZM360.097 68.3679L358.519 69.9345L353.714 65.0944L355.292 63.5277L360.097 68.3679Z" fill="white"/>
<path d="M368.411 77.6355L358.821 86.1083L356.929 83.9676L359.927 74.869L353.729 80.3449L351.832 78.1977L361.422 69.7249L363.319 71.8721L360.327 80.9773L366.525 75.5014L368.411 77.6355Z" fill="white"/>
<path d="M368.679 91.6795L370.42 93.9324C369.696 94.4329 368.935 94.7177 368.137 94.7867C367.347 94.8569 366.568 94.7071 365.801 94.3374C365.038 93.9641 364.336 93.3625 363.695 92.5327C363.182 91.8698 362.837 91.1886 362.659 90.4892C362.482 89.7898 362.462 89.0939 362.601 88.4016C362.748 87.7103 363.045 87.0361 363.493 86.3792C363.948 85.7232 364.554 85.1032 365.31 84.5191L365.928 84.0406C366.684 83.4565 367.44 83.0312 368.197 82.7647C368.954 82.4981 369.689 82.3854 370.402 82.4266C371.115 82.4678 371.786 82.6602 372.414 83.0038C373.043 83.3474 373.604 83.839 374.099 84.4788C374.766 85.341 375.173 86.1889 375.321 87.0223C375.469 87.8558 375.397 88.6444 375.106 89.3882C374.818 90.1367 374.351 90.8121 373.706 91.4145L371.959 89.1546C372.339 88.8315 372.613 88.5011 372.781 88.1634C372.955 87.8222 373.007 87.4634 372.938 87.087C372.869 86.7106 372.663 86.2999 372.319 85.8549C372.068 85.5304 371.787 85.2919 371.477 85.1393C371.17 84.9915 370.826 84.9349 370.446 84.9698C370.069 85.0093 369.653 85.1419 369.198 85.3677C368.748 85.5899 368.254 85.9089 367.716 86.3246L367.083 86.8137C366.55 87.2259 366.116 87.6172 365.78 87.9878C365.445 88.3583 365.209 88.7186 365.072 89.0687C364.939 89.4234 364.905 89.772 364.969 90.1145C365.034 90.4569 365.203 90.8043 365.475 91.1566C365.787 91.5599 366.109 91.8476 366.442 92.0197C366.78 92.1883 367.134 92.2441 367.505 92.1871C367.875 92.1301 368.267 91.9609 368.679 91.6795Z" fill="white"/>
<path d="M379.483 92.0651L376.195 97.3471L382.32 96.2153L384.066 98.7694L374.972 99.9503L371.156 102.559L369.514 100.158L373.331 97.5487L377.727 89.4966L379.483 92.0651Z" fill="white"/>
<path d="M382.959 115.372C383.148 115.265 383.3 115.141 383.416 115.002C383.537 114.859 383.62 114.678 383.664 114.458C383.707 114.238 383.717 113.956 383.691 113.614C383.671 113.269 383.605 112.838 383.494 112.321C383.375 111.729 383.288 111.149 383.235 110.579C383.19 110.012 383.206 109.475 383.282 108.967C383.358 108.459 383.522 108 383.774 107.588C384.028 107.181 384.4 106.839 384.89 106.562C385.364 106.294 385.852 106.156 386.352 106.148C386.853 106.141 387.345 106.249 387.829 106.474C388.318 106.695 388.778 107.02 389.21 107.449C389.646 107.875 390.038 108.394 390.384 109.006C390.846 109.822 391.107 110.621 391.165 111.402C391.232 112.186 391.103 112.898 390.779 113.54C390.461 114.178 389.96 114.691 389.277 115.077L387.874 112.599C388.174 112.429 388.404 112.215 388.561 111.958C388.726 111.703 388.803 111.41 388.791 111.08C388.782 110.755 388.671 110.404 388.457 110.027C388.249 109.66 388.019 109.383 387.765 109.196C387.519 109.012 387.266 108.91 387.005 108.889C386.747 108.874 386.506 108.929 386.282 109.056C386.103 109.158 385.966 109.296 385.87 109.471C385.782 109.649 385.725 109.863 385.699 110.114C385.68 110.367 385.69 110.657 385.728 110.986C385.766 111.315 385.831 111.679 385.922 112.078C386.071 112.781 386.161 113.428 386.191 114.016C386.225 114.61 386.185 115.148 386.074 115.628C385.962 116.109 385.767 116.532 385.49 116.898C385.215 117.269 384.846 117.586 384.382 117.849C383.887 118.129 383.394 118.28 382.902 118.303C382.412 118.331 381.93 118.24 381.455 118.031C380.988 117.824 380.544 117.51 380.123 117.088C379.703 116.666 379.318 116.147 378.968 115.53C378.651 114.969 378.409 114.376 378.243 113.749C378.082 113.12 378.026 112.498 378.076 111.884C378.129 111.276 378.312 110.707 378.626 110.179C378.948 109.654 379.43 109.209 380.072 108.845L381.484 111.339C381.147 111.529 380.889 111.739 380.709 111.969C380.535 112.196 380.427 112.439 380.385 112.698C380.346 112.962 380.37 113.242 380.456 113.537C380.542 113.831 380.676 114.139 380.858 114.461C381.068 114.833 381.29 115.105 381.522 115.276C381.761 115.45 382.005 115.542 382.252 115.55C382.499 115.558 382.735 115.499 382.959 115.372Z" fill="white"/>
<path d="M394.103 121.703L383.338 123.259L382.001 120.507L395.582 119.176L396.427 120.915L394.103 121.703ZM385.981 128.697L393.853 121.189L395.893 119.816L396.75 121.579L387.317 131.449L385.981 128.697ZM390.204 126.489L388.212 127.457L385.296 121.457L387.289 120.489L390.204 126.489Z" fill="white"/>
<path d="M392.243 135.953L402.537 134.812L403.747 137.764L390.243 138.558L389.453 136.631L392.243 135.953ZM400.474 129.777L392.337 136.18L389.88 137.672L389.08 135.72L399.268 126.833L400.474 129.777Z" fill="white"/>
<path d="M397.086 150.894L394.993 151.618L392.768 145.18L394.862 144.456L397.086 150.894ZM405.182 141.923L393.087 146.102L392.151 143.394L404.247 139.215L405.182 141.923ZM401.933 148.29L399.906 148.99L397.969 143.383L399.996 142.683L401.933 148.29ZM407.091 147.447L404.989 148.173L402.762 141.727L404.864 141.001L407.091 147.447Z" fill="white"/>
<path d="M397.887 161.806L397.193 159.08L399.343 158.551L400.033 161.259C400.191 161.878 400.466 162.364 400.859 162.718C401.257 163.07 401.765 163.285 402.383 163.363C403.008 163.44 403.726 163.375 404.538 163.168L405.108 163.023C405.722 162.867 406.245 162.667 406.679 162.423C407.118 162.178 407.466 161.893 407.722 161.568C407.977 161.243 408.139 160.878 408.205 160.474C408.273 160.076 408.247 159.644 408.129 159.179L407.426 156.419L409.581 155.87L410.284 158.63C410.498 159.47 410.551 160.273 410.444 161.038C410.338 161.808 410.085 162.514 409.686 163.154C409.288 163.799 408.764 164.353 408.113 164.815C407.463 165.277 406.695 165.621 405.81 165.846L405.256 165.987C404.376 166.211 403.537 166.277 402.739 166.184C401.947 166.089 401.222 165.854 400.564 165.477C399.913 165.105 399.357 164.609 398.897 163.988C398.436 163.368 398.1 162.641 397.887 161.806ZM409.995 157.497L397.594 160.656L396.887 157.88L409.288 154.72L409.995 157.497Z" fill="white"/>
<path d="M403.556 177.429L401.382 177.853L400.08 171.167L402.254 170.744L403.556 177.429ZM412.828 169.679L400.267 172.124L399.719 169.312L412.28 166.866L412.828 169.679ZM408.72 175.529L406.615 175.939L405.481 170.115L407.586 169.705L408.72 175.529ZM413.945 175.416L411.762 175.841L410.459 169.146L412.641 168.721L413.945 175.416Z" fill="white"/>
<path d="M405.21 184.546L415.455 186.068L415.872 189.231L402.612 186.555L402.34 184.49L405.21 184.546ZM414.744 180.674L405.243 184.79L402.487 185.605L402.211 183.514L414.329 177.52L414.744 180.674Z" fill="white"/>
</svg>
