<svg width="322" height="316" viewBox="0 0 322 316" fill="none" xmlns="http://www.w3.org/2000/svg">
<ellipse cx="160.968" cy="158" rx="137.536" ry="135" fill="#F9E5B1"/>
<path fill-rule="evenodd" clip-rule="evenodd" d="M225.144 136.595L230.647 141.995C235.004 146.195 237.374 151.895 237.374 157.895C237.45 163.895 235.081 169.602 230.8 173.87C230.749 173.925 230.698 173.973 230.647 174.022C230.622 174.046 230.597 174.07 230.571 174.095L225.144 179.42C223.004 181.52 221.781 184.37 221.781 187.377V195.095C221.781 207.545 211.462 217.677 198.773 217.677H190.901C187.843 217.677 184.938 218.87 182.798 220.97L177.295 226.37C172.785 230.802 166.899 232.97 161.014 232.97C155.128 232.97 149.243 230.802 144.733 226.452L139.153 220.97C137.013 218.87 134.108 217.677 131.051 217.677H123.178C110.489 217.677 100.17 207.545 100.17 195.095V187.377C100.17 184.37 98.9474 181.52 96.8072 179.345L91.3038 174.02C82.3607 165.252 82.2843 150.92 91.2273 142.077L96.8072 136.595C98.9474 134.495 100.17 131.645 100.17 128.57V120.92C100.17 108.47 110.489 98.3525 123.178 98.3525H131.051C134.108 98.3525 137.013 97.145 139.153 95.045L144.656 89.645C153.6 80.8025 168.199 80.8025 177.218 89.5775L182.798 95.045C184.938 97.145 187.843 98.3525 190.901 98.3525H198.773C211.462 98.3525 221.781 108.47 221.781 120.92V128.652C221.781 131.645 223.004 134.495 225.144 136.595ZM141.293 183.845C143.128 183.845 144.809 183.17 146.032 181.895L185.321 143.352C187.919 140.802 187.919 136.595 185.321 134.045C182.722 131.502 178.518 131.502 175.919 134.045L136.631 172.595C134.032 175.145 134.032 179.345 136.631 181.895C137.854 183.17 139.535 183.845 141.293 183.845ZM173.932 177.245C173.932 180.92 176.913 183.845 180.658 183.845C184.327 183.845 187.308 180.92 187.308 177.245C187.308 173.652 184.327 170.72 180.658 170.72C176.913 170.72 173.932 173.652 173.932 177.245ZM141.37 132.17C145.039 132.17 148.02 135.095 148.02 138.695C148.02 142.377 145.039 145.295 141.37 145.295C137.701 145.295 134.643 142.377 134.643 138.695C134.643 135.095 137.701 132.17 141.37 132.17Z" fill="#130F26"/>
<path d="M307.191 158C307.191 237.227 241.751 301.5 160.968 301.5C80.1843 301.5 14.7442 237.227 14.7442 158C14.7442 78.7733 80.1843 14.5 160.968 14.5C241.751 14.5 307.191 78.7733 307.191 158Z" stroke="#F9E5B1" stroke-width="3"/>
<path d="M314.823 157.5C314.823 240.601 246.185 308 161.477 308C76.7691 308 8.13147 240.601 8.13147 157.5C8.13147 74.3986 76.7691 7 161.477 7C246.185 7 314.823 74.3986 314.823 157.5Z" stroke="#F9E5B1" stroke-width="2"/>
<path d="M321.436 158C321.436 244.976 249.601 315.5 160.968 315.5C72.3351 315.5 0.5 244.976 0.5 158C0.5 71.0239 72.3351 0.5 160.968 0.5C249.601 0.5 321.436 71.0239 321.436 158Z" stroke="#F9E5B1"/>
</svg>
