<svg width="323" height="316" viewBox="0 0 323 316" fill="none" xmlns="http://www.w3.org/2000/svg">
<ellipse cx="161.5" cy="158" rx="137.536" ry="135" fill="#F9E5B1"/>
<path fill-rule="evenodd" clip-rule="evenodd" d="M194.424 174.257C197.06 174.257 199.199 172.157 199.199 169.57V157.995C199.199 155.407 197.06 153.307 194.424 153.307H158.181C156.118 146.639 149.865 141.739 142.402 141.739C133.271 141.739 125.841 149.032 125.841 157.995C125.841 166.964 133.271 174.257 142.402 174.257C149.865 174.257 156.118 169.357 158.181 162.682H171.629V169.57C171.629 172.157 173.768 174.257 176.404 174.257C179.04 174.257 181.18 172.157 181.18 169.57V162.682H189.648V169.57C189.648 172.157 191.788 174.257 194.424 174.257ZM134.921 95.495H190.12C211.692 95.495 226.191 110.357 226.191 132.476V183.52C226.191 205.639 211.692 220.495 190.113 220.495H134.921C113.341 220.495 98.8429 205.639 98.8429 183.52V132.476C98.8429 110.357 113.341 95.495 134.921 95.495ZM135.386 158.001C135.386 154.201 138.538 151.113 142.403 151.113C146.268 151.113 149.42 154.201 149.42 158.001C149.42 161.794 146.268 164.882 142.403 164.882C138.538 164.882 135.386 161.794 135.386 158.001Z" fill="#130F26"/>
<path d="M307.724 158C307.724 237.227 242.284 301.5 161.5 301.5C80.7165 301.5 15.2764 237.227 15.2764 158C15.2764 78.7733 80.7165 14.5 161.5 14.5C242.284 14.5 307.724 78.7733 307.724 158Z" stroke="#F9E5B1" stroke-width="3"/>
<path d="M315.355 157.5C315.355 240.601 246.718 308 162.009 308C77.3013 308 8.66368 240.601 8.66368 157.5C8.66368 74.3986 77.3013 7 162.009 7C246.718 7 315.355 74.3986 315.355 157.5Z" stroke="#F9E5B1" stroke-width="2"/>
<path d="M321.968 158C321.968 244.976 250.133 315.5 161.5 315.5C72.8673 315.5 1.0322 244.976 1.0322 158C1.0322 71.0239 72.8673 0.5 161.5 0.5C250.133 0.5 321.968 71.0239 321.968 158Z" stroke="#F9E5B1"/>
</svg>
