<svg width="322" height="316" viewBox="0 0 322 316" fill="none" xmlns="http://www.w3.org/2000/svg">
<ellipse cx="161.032" cy="158" rx="137.536" ry="135" fill="#F9E5B1"/>
<path d="M307.256 158C307.256 237.227 241.816 301.5 161.032 301.5C80.2487 301.5 14.8086 237.227 14.8086 158C14.8086 78.7733 80.2487 14.5 161.032 14.5C241.816 14.5 307.256 78.7733 307.256 158Z" stroke="#F9E5B1" stroke-width="3"/>
<path d="M314.887 157.5C314.887 240.601 246.25 308 161.542 308C76.8335 308 8.19588 240.601 8.19588 157.5C8.19588 74.3986 76.8335 7 161.542 7C246.25 7 314.887 74.3986 314.887 157.5Z" stroke="#F9E5B1" stroke-width="2"/>
<path d="M321.5 158C321.5 244.976 249.665 315.5 161.032 315.5C72.3995 315.5 0.564392 244.976 0.564392 158C0.564392 71.0239 72.3995 0.5 161.032 0.5C249.665 0.5 321.5 71.0239 321.5 158Z" stroke="#F9E5B1"/>
<path fill-rule="evenodd" clip-rule="evenodd" d="M191.757 95.5646C200.916 95.0027 209.949 98.1244 216.755 104.243C222.989 110.924 226.169 119.79 225.66 128.843V187.157C226.233 196.21 222.989 205.076 216.819 211.757C210.012 217.876 200.916 220.997 191.757 220.435H132.346C123.123 220.997 114.091 217.876 107.284 211.757C101.051 205.076 97.8703 196.21 98.4428 187.157V128.843C97.8703 119.79 101.051 110.924 107.284 104.243C114.091 98.1244 123.123 95.0027 132.346 95.5646H191.757ZM155.563 188.281L198.372 146.137C202.252 142.266 202.252 136.023 198.372 132.214L190.103 124.098C186.159 120.227 179.798 120.227 175.855 124.098L171.593 128.343C170.957 128.968 170.957 130.029 171.593 130.653C171.593 130.653 181.707 140.518 181.897 140.768C182.597 141.517 183.042 142.516 183.042 143.64C183.042 145.888 181.198 147.761 178.844 147.761C177.763 147.761 176.745 147.324 176.045 146.637L165.423 136.272C164.914 135.773 164.023 135.773 163.514 136.272L133.173 166.054C131.074 168.115 129.866 170.862 129.802 173.796L129.42 188.593C129.42 189.405 129.675 190.154 130.247 190.716C130.82 191.278 131.583 191.59 132.41 191.59H147.358C150.411 191.59 153.337 190.404 155.563 188.281Z" fill="#130F26"/>
</svg>
