<svg width="154" height="150" viewBox="0 0 154 150" fill="none" xmlns="http://www.w3.org/2000/svg">
<path fill-rule="evenodd" clip-rule="evenodd" d="M141.144 53.595L146.647 58.995C151.004 63.195 153.374 68.895 153.374 74.895C153.45 80.895 151.081 86.6025 146.8 90.87C146.749 90.925 146.698 90.9733 146.647 91.0216C146.622 91.0458 146.597 91.07 146.571 91.095L141.144 96.42C139.004 98.52 137.781 101.37 137.781 104.377V112.095C137.781 124.545 127.462 134.677 114.773 134.677H106.901C103.843 134.677 100.938 135.87 98.7982 137.97L93.2948 143.37C88.7851 147.802 82.8994 149.97 77.0138 149.97C71.1282 149.97 65.2426 147.802 60.7329 143.452L55.153 137.97C53.0128 135.87 50.1082 134.677 47.0507 134.677H39.1778C26.4893 134.677 16.1704 124.545 16.1704 112.095V104.377C16.1704 101.37 14.9474 98.52 12.8072 96.345L7.30378 91.02C-1.63929 82.2525 -1.71573 67.92 7.22734 59.0775L12.8072 53.595C14.9474 51.495 16.1704 48.645 16.1704 45.57V37.92C16.1704 25.47 26.4893 15.3525 39.1778 15.3525H47.0507C50.1082 15.3525 53.0128 14.145 55.153 12.045L60.6564 6.64498C69.5995 -2.19752 84.1989 -2.19752 93.2184 6.57748L98.7982 12.045C100.938 14.145 103.843 15.3525 106.901 15.3525H114.773C127.462 15.3525 137.781 25.47 137.781 37.92V45.6525C137.781 48.645 139.004 51.495 141.144 53.595ZM57.2932 100.845C59.1277 100.845 60.8093 100.17 62.0323 98.895L101.321 60.3525C103.919 57.8025 103.919 53.595 101.321 51.045C98.7218 48.5025 94.5178 48.5025 91.919 51.045L52.6306 89.595C50.0318 92.145 50.0318 96.345 52.6306 98.895C53.8536 100.17 55.5352 100.845 57.2932 100.845ZM89.9316 94.245C89.9316 97.92 92.9126 100.845 96.658 100.845C100.327 100.845 103.308 97.92 103.308 94.245C103.308 90.6525 100.327 87.72 96.658 87.72C92.9126 87.72 89.9316 90.6525 89.9316 94.245ZM57.3697 49.17C61.0386 49.17 64.0196 52.095 64.0196 55.695C64.0196 59.3775 61.0386 62.295 57.3697 62.295C53.7007 62.295 50.6433 59.3775 50.6433 55.695C50.6433 52.095 53.7007 49.17 57.3697 49.17Z" fill="#130F26"/>
</svg>
