<svg width="129" height="129" viewBox="0 0 129 129" fill="none" xmlns="http://www.w3.org/2000/svg">
<rect y="22.6797" width="20" height="20" transform="rotate(-12.1222 0 22.6797)" fill="#FEF401"/>
<rect x="4.61993" y="44.1891" width="20" height="20" transform="rotate(-12.1222 4.61993 44.1891)" fill="#FEF401"/>
<rect x="9.23993" y="65.6986" width="20" height="20" transform="rotate(-12.1222 9.23993 65.6986)" fill="#FEF401"/>
<rect x="86.0378" y="4.19992" width="20" height="20" transform="rotate(-12.1222 86.0378 4.19992)" fill="#FEF401"/>
<rect x="90.6577" y="25.7094" width="20" height="20" transform="rotate(-12.1222 90.6577 25.7094)" fill="#FEF401"/>
<rect x="69.1483" y="30.3293" width="20" height="20" transform="rotate(-12.1222 69.1483 30.3293)" fill="#FEF401"/>
<rect x="64.5283" y="8.81985" width="20" height="20" transform="rotate(-12.1222 64.5283 8.81985)" fill="#FEF401"/>
<rect x="73.7682" y="51.8387" width="20" height="20" transform="rotate(-12.1222 73.7682 51.8387)" fill="#FEF401"/>
<rect x="95.2776" y="47.2188" width="20" height="20" transform="rotate(-12.1222 95.2776 47.2188)" fill="#FEF401"/>
<rect x="30.7494" y="61.0786" width="20" height="20" transform="rotate(-12.1222 30.7494 61.0786)" fill="#FEF401"/>
<rect x="52.2588" y="56.4587" width="20" height="20" transform="rotate(-12.1222 52.2588 56.4587)" fill="#FEF401"/>
<rect x="56.8787" y="77.9681" width="20" height="20" transform="rotate(-12.1222 56.8787 77.9681)" fill="#FEF401"/>
<rect x="78.3882" y="73.3482" width="20" height="20" transform="rotate(-12.1222 78.3882 73.3482)" fill="#FEF401"/>
<rect x="83.0081" y="94.8576" width="20" height="20" transform="rotate(-12.1222 83.0081 94.8576)" fill="#FEF401"/>
<rect x="61.4987" y="99.4776" width="20" height="20" transform="rotate(-12.1222 61.4987 99.4776)" fill="#FEF401"/>
<rect x="39.9892" y="104.098" width="20" height="20" transform="rotate(-12.1222 39.9892 104.098)" fill="#FEF401"/>
<rect x="18.4798" y="108.717" width="20" height="20" transform="rotate(-12.1222 18.4798 108.717)" fill="#FEF401"/>
<rect x="35.3693" y="82.5881" width="20" height="20" transform="rotate(-12.1222 35.3693 82.5881)" fill="#FEF401"/>
<rect x="13.8599" y="87.208" width="20" height="20" transform="rotate(-12.1222 13.8599 87.208)" fill="#FEF401"/>
<rect x="104.518" y="90.2377" width="20" height="20" transform="rotate(-12.1222 104.518 90.2377)" fill="#FEF401"/>
<rect x="99.8976" y="68.7282" width="20" height="20" transform="rotate(-12.1222 99.8976 68.7282)" fill="#FEF401"/>
<rect x="21.5095" y="18.0598" width="42" height="42" transform="rotate(-12.1222 21.5095 18.0598)" fill="#FEF401"/>
</svg>
