<svg width="278" height="85" viewBox="0 0 278 85" fill="none" xmlns="http://www.w3.org/2000/svg">
<g clip-path="url(#clip0_2_121)">
<path d="M0 27.17H4.41374V27.8986C4.34383 29.6539 4.52284 31.4103 4.94543 33.1155C5.19981 34.1015 5.82984 34.9488 6.70072 35.4762C7.61755 35.8997 8.60587 36.1469 9.61408 36.2048C10.9397 36.3554 13.6758 36.4307 17.8225 36.4307C19.5788 36.4758 21.3347 36.3292 23.0592 35.9935C24.1064 35.8331 25.081 35.3608 25.8561 34.6383C26.2583 34.1133 26.5101 33.4886 26.5844 32.8313C26.76 31.6864 26.8379 30.5286 26.8175 29.3704C26.8175 26.4559 26.5261 24.5834 25.9289 23.8329C25.3317 23.0825 24.159 22.6307 22.411 22.485L10.2332 21.5232C6.58662 21.2415 4.06171 20.3283 2.65844 18.7836C1.25517 17.239 0.555966 14.6427 0.560822 10.9948C0.513261 9.11745 0.759 7.24421 1.28916 5.44273C1.70808 4.10365 2.47761 2.90113 3.51788 1.95996C4.48422 1.17513 5.63945 0.657592 6.86824 0.459023C9.38207 0.0833404 11.9241 -0.0702535 14.4648 4.71983e-06H15.8778C19.9322 4.71983e-06 22.7873 0.196728 24.4431 0.590179C25.9743 0.916525 27.4038 1.60901 28.6092 2.60843C29.4234 3.33337 30.0082 4.28052 30.2917 5.33345C30.6861 6.75617 30.8702 8.22903 30.8379 9.70512C30.8379 10.2152 30.8379 10.6086 30.8379 10.8855C30.8379 11.1623 30.8379 11.4028 30.8379 11.6141H26.3368V10.6305C26.3639 9.5148 26.2785 8.39923 26.0818 7.3007C25.9803 6.66259 25.7 6.06636 25.2734 5.58117C24.4385 4.91475 23.4244 4.51153 22.36 4.42268C19.6991 4.14333 17.0231 4.03382 14.3483 4.09481C10.2696 4.09481 7.70826 4.55626 6.66431 5.47917C5.62036 6.40208 5.09838 8.24548 5.09838 11.0093C5.09838 13.2753 5.4407 14.8346 6.12534 15.7016C6.80998 16.5687 8.12099 17.0641 10.0657 17.2244L22.4766 18.2955C25.7298 18.5724 28.0144 19.471 29.3302 20.9913C30.6461 22.5117 31.3016 25.0424 31.2968 28.5835C31.3571 30.5394 31.1885 32.4957 30.7942 34.4124C30.4924 35.7664 29.8106 37.0061 28.8287 37.9857C27.8468 38.9654 26.6058 39.6443 25.2515 39.9426C23.6346 40.3797 20.68 40.5983 16.3876 40.5983H14.4648C11.8715 40.6848 9.27635 40.4968 6.72258 40.0373C5.31718 39.7205 4.01447 39.0538 2.93521 38.0992C1.89882 37.1746 1.14191 35.9783 0.750189 34.6455C0.225037 32.8505 -0.020623 30.9852 0.0218493 29.1154L0 27.17Z" fill="#1D1D1B"/>
<path d="M52.2074 37.8515C51.7088 38.7456 50.8966 39.4232 49.9277 39.7531C48.5163 40.2024 47.0375 40.4021 45.5577 40.3433C42.2801 40.3433 40.0951 39.8746 39.0026 38.9371C37.8809 38.0045 37.3274 36.2558 37.3274 33.7056C37.2918 32.5371 37.4218 31.3695 37.7134 30.2375C37.9407 29.4549 38.3883 28.7543 39.0026 28.2192C39.6427 27.7377 40.3945 27.4268 41.1876 27.3157C42.583 27.1052 43.9939 27.0151 45.4047 27.0461C46.8762 26.9918 48.3478 27.1489 49.7747 27.5124C50.6864 27.7605 51.4858 28.3133 52.0399 29.0789V25.4359C52.0399 23.7236 51.7048 22.6089 51.042 22.1061C50.3793 21.6034 48.7114 21.3775 46.0384 21.3775C44.0961 21.3775 42.8094 21.5791 42.1782 21.9823C41.8314 22.2475 41.5578 22.5967 41.3832 22.997C41.2086 23.3972 41.1388 23.8354 41.1803 24.2701H38.0922V23.7892C38.0922 21.9968 38.6676 20.7145 39.8329 19.9494C40.9982 19.1844 43.0012 18.8055 45.8417 18.8055C47.5335 18.7749 49.2253 18.8674 50.9037 19.0824C51.8173 19.1834 52.6962 19.4898 53.4747 19.9786C54.0683 20.4346 54.5183 21.0517 54.7711 21.7564C55.0836 22.9441 55.2113 24.1729 55.1499 25.3995V40.0956H52.3385L52.2074 37.8515ZM52.0472 34.7184V32.5326C52.0512 32.0553 51.9069 31.5887 51.6341 31.1971C51.3614 30.8055 50.9738 30.5083 50.5249 30.3467C48.97 29.7835 47.3185 29.5358 45.6669 29.6181C43.6324 29.6181 42.2753 29.861 41.5955 30.3467C40.9108 30.8641 40.5685 31.8404 40.5685 33.2612C40.5685 34.9079 40.9303 36.0081 41.6537 36.5618C42.3821 37.1083 43.8388 37.3851 46.0238 37.3851C47.5534 37.4518 49.0804 37.2038 50.5104 36.6565C50.9322 36.5266 51.3049 36.2718 51.5792 35.9259C51.8535 35.5799 52.0167 35.159 52.0472 34.7184V34.7184Z" fill="#1D1D1B"/>
<path d="M58.442 19.0678H61.552L67.7939 37.1374L74.0503 19.0678H77.0583L69.8186 40.0664H65.7691L58.442 19.0678Z" fill="#1D1D1B"/>
<path d="M88.2602 40.3433C85.1284 40.3433 82.9433 39.7313 81.7052 38.5072C80.4597 37.2904 79.8333 35.141 79.8333 32.0736V27.0826C79.8333 24.003 80.4548 21.8511 81.6979 20.6271C82.9409 19.403 85.1259 18.791 88.2529 18.791H89.7096C92.8415 18.791 95.0265 19.403 96.2647 20.6271C97.5028 21.8511 98.1268 24.003 98.1365 27.0826V30.2666H83.0453C83.0453 30.4779 83.0453 30.7183 83.0453 30.9952C83.0453 31.2721 83.0453 31.6218 83.0453 32.0881C83.0453 34.2546 83.39 35.7118 84.0795 36.4598C84.7715 37.1884 86.1699 37.5673 88.2675 37.5673H89.7242C91.5936 37.5673 92.8949 37.2977 93.6281 36.7586C94.0317 36.4087 94.3547 35.9754 94.5748 35.4886C94.7948 35.0018 94.9067 34.4731 94.9027 33.9388H98.1292C97.969 36.2121 97.2406 37.8588 95.9442 38.8642C94.6477 39.8697 92.5865 40.3798 89.7679 40.3798L88.2602 40.3433ZM83.038 27.527H94.9172V26.7037C94.9172 24.7364 94.5652 23.4006 93.8611 22.6963C93.1328 21.9677 91.7635 21.6398 89.6805 21.6398H88.2238C86.148 21.6398 84.7642 21.9969 84.0795 22.6963C83.3949 23.3958 83.038 24.7364 83.038 26.7037V27.527Z" fill="#1D1D1B"/>
<path d="M22.6004 85V45.4144H41.712C46.6744 45.4144 50.1559 46.3981 52.1564 48.3653C54.1569 50.3326 55.1572 53.7716 55.1572 58.6825V71.7392C55.1572 76.6452 54.1521 80.0867 52.1418 82.0637C50.1316 84.0406 46.655 85.0291 41.712 85.0291L22.6004 85ZM26.9704 81.0873H40.9982C44.8099 81.0873 47.3615 80.4413 48.6531 79.1492C49.9423 77.8596 50.5905 75.3896 50.5905 71.7611V58.9739C50.5905 55.1414 49.9495 52.5791 48.6677 51.2871C47.3785 49.9974 44.8293 49.3489 40.9982 49.3489H26.9631L26.9704 81.0873Z" fill="#1D1D1B"/>
<path d="M66.9053 75.3823C63.7637 75.3823 61.5787 74.7703 60.3502 73.5462C59.0975 72.3222 58.4711 70.18 58.4711 67.1053V62.1216C58.4711 59.0395 59.0975 56.8828 60.3357 55.6661C61.5738 54.4493 63.7661 53.83 66.8907 53.83H68.3474C71.489 53.83 73.674 54.442 74.9025 55.6661C76.1552 56.8828 76.7743 59.0395 76.7743 62.1216V65.291H61.6904C61.6904 65.5023 61.6904 65.7428 61.6904 66.0197C61.6904 66.2965 61.6904 66.639 61.6904 67.1053C61.6904 69.2766 62.0376 70.7338 62.7319 71.477C63.4165 72.2056 64.815 72.5844 66.9126 72.5844H68.3692C70.2387 72.5844 71.54 72.3149 72.2732 71.7757C72.6766 71.4253 72.9999 70.9921 73.2211 70.5055C73.4423 70.019 73.5562 69.4905 73.555 68.956H76.7816C76.6213 71.2292 75.893 72.871 74.5966 73.8814C73.3001 74.8917 71.2219 75.3921 68.362 75.3823H66.9053ZM61.6831 62.5587H73.5623V61.7427C73.5623 59.7754 73.2054 58.4421 72.5062 57.7353C71.807 57.0286 70.4013 56.6788 68.3183 56.6788H66.8616C64.7931 56.6788 63.4117 57.031 62.7173 57.7353C62.023 58.4397 61.6782 59.7754 61.6831 61.7427V62.5587Z" fill="#1D1D1B"/>
<path d="M79.4109 54.1068H82.5209L88.7555 72.1691L95.0119 54.1068H98.02L90.8094 75.1054H86.7598L79.4109 54.1068Z" fill="#1D1D1B"/>
<path d="M109.229 75.3823C106.088 75.3823 103.903 74.7703 102.674 73.5462C101.429 72.3222 100.802 70.18 100.802 67.1053V62.1216C100.802 59.0395 101.421 56.8828 102.667 55.6661C103.912 54.4493 106.09 53.83 109.222 53.83H110.679C113.82 53.83 116.005 54.442 117.234 55.6661C118.486 56.8828 119.113 59.0395 119.113 62.1216V65.291H104.021C104.021 65.5023 104.021 65.7428 104.021 66.0197C104.021 66.2965 104.021 66.639 104.021 67.1053C104.021 69.2766 104.366 70.7338 105.056 71.477C105.748 72.2056 107.139 72.5844 109.244 72.5844H110.7C112.579 72.5844 113.876 72.3149 114.612 71.7757C115.013 71.4237 115.334 70.99 115.554 70.5037C115.773 70.0174 115.887 69.4897 115.886 68.956H119.113C118.952 71.2292 118.224 72.871 116.928 73.8814C115.624 74.8942 113.57 75.3969 110.751 75.3969L109.229 75.3823ZM104.007 62.5587H115.886V61.7427C115.886 59.7754 115.534 58.4397 114.83 57.7353C114.102 57.0067 112.732 56.6788 110.642 56.6788H109.185C107.112 56.6788 105.728 57.031 105.034 57.7353C104.349 58.4639 104 59.7754 104 61.7427L104.007 62.5587Z" fill="#1D1D1B"/>
<path d="M124.699 75.1054V45.4144H127.787V75.1054H124.699Z" fill="#1D1D1B"/>
<path d="M141.837 75.3823C138.695 75.3823 136.51 74.7703 135.282 73.5462C134.029 72.3222 133.41 70.18 133.41 67.1053V62.1216C133.41 59.0395 134.029 56.8828 135.275 55.6661C136.52 54.4493 138.698 53.83 141.83 53.83H143.286C146.423 53.83 148.608 54.442 149.841 55.6661C151.094 56.8828 151.713 59.0395 151.713 62.1216V67.1053C151.713 70.1946 151.094 72.3465 149.856 73.5608C148.61 74.7703 146.425 75.3823 143.301 75.3823H141.837ZM148.479 66.4131V62.821C148.479 60.1786 148.144 58.4931 147.474 57.7645C146.804 57.0358 145.391 56.674 143.235 56.6788H141.779C139.642 56.6788 138.244 57.0383 137.583 57.7572C136.923 58.4761 136.595 60.164 136.6 62.821V66.4131C136.6 69.0798 136.935 70.7848 137.598 71.5134C138.261 72.242 139.659 72.5917 141.779 72.5917H143.235C145.377 72.5917 146.785 72.2274 147.46 71.4988C148.152 70.7411 148.479 69.058 148.479 66.4131Z" fill="#1D1D1B"/>
<path d="M157.343 54.1068H160.315V57.3783C160.755 56.2268 161.592 55.2706 162.675 54.6824C164.017 54.0559 165.492 53.7635 166.972 53.8299C169.958 53.8299 172.07 54.4493 173.294 55.6806C174.517 56.912 175.144 59.0687 175.144 62.1215V67.1053C175.144 70.1509 174.527 72.2906 173.294 73.5243C172.07 74.763 169.958 75.3823 166.972 75.3823C165.56 75.4457 164.152 75.184 162.857 74.6173C161.8 74.0646 160.949 73.1856 160.431 72.1108V83.1347H157.343V54.1068ZM160.431 66.3329C160.431 68.5139 160.939 70.0974 161.954 71.0835C162.968 72.0695 164.6 72.5553 166.848 72.5407C168.878 72.5407 170.23 72.1764 170.905 71.4478C171.575 70.7192 171.91 69.0288 171.91 66.3839V62.7919C171.91 60.13 171.575 58.4299 170.905 57.6916C170.235 56.9533 168.883 56.589 166.848 56.5987C164.605 56.5987 162.973 57.0844 161.954 58.0559C160.941 59.0395 160.431 60.6352 160.431 62.8283V66.3329Z" fill="#1D1D1B"/>
<path d="M181.182 75.1054V54.1068H184.212V56.9775C184.615 55.9367 185.395 55.086 186.397 54.595C187.681 54.0337 189.075 53.7721 190.475 53.8299C191.912 53.7577 193.345 54.0378 194.649 54.646C195.689 55.2342 196.484 56.1748 196.892 57.2981C197.404 56.1849 198.249 55.2582 199.31 54.646C200.536 54.052 201.89 53.7716 203.251 53.8299C205.994 53.8299 207.9 54.3739 208.968 55.462C210.036 56.5501 210.568 58.51 210.563 61.3419V75.1054H207.475V62.3256C207.475 59.9794 207.174 58.4469 206.572 57.728C205.967 56.9994 204.787 56.6424 203.032 56.6424C201.09 56.6424 199.677 57.1281 198.793 58.0996C197.912 59.0832 197.467 60.6789 197.467 62.872V75.0763H194.459V60.8683C194.459 59.1998 194.161 58.0777 193.556 57.4948C192.952 56.912 191.794 56.6205 190.097 56.6205C188.101 56.6205 186.644 57.1257 185.727 58.136C184.809 59.1464 184.34 60.7275 184.321 62.8793V75.0836L181.182 75.1054Z" fill="#1D1D1B"/>
<path d="M224.409 75.3823C221.277 75.3823 219.092 74.7703 217.854 73.5462C216.608 72.3222 215.982 70.18 215.982 67.1053V62.1216C215.982 59.0395 216.601 56.8828 217.846 55.6661C219.092 54.4493 221.27 53.83 224.401 53.83H225.858C228.995 53.83 231.18 54.442 232.413 55.6661C233.666 56.8828 234.292 59.0395 234.292 62.1216V65.291H219.201C219.201 65.5023 219.201 65.7428 219.201 66.0197C219.201 66.2965 219.201 66.639 219.201 67.1053C219.201 69.2766 219.546 70.7338 220.235 71.477C220.927 72.2056 222.318 72.5844 224.423 72.5844H225.88C227.759 72.5844 229.056 72.3149 229.791 71.7757C230.192 71.4237 230.513 70.99 230.733 70.5037C230.953 70.0174 231.066 69.4897 231.066 68.956H234.292C234.132 71.2292 233.404 72.871 232.107 73.8814C230.804 74.8942 228.75 75.3969 225.931 75.3969L224.409 75.3823ZM219.187 62.5587H231.066V61.7427C231.066 59.7754 230.714 58.4397 230.01 57.7353C229.281 57.0067 227.912 56.6788 225.822 56.6788H224.365C222.292 56.6788 220.908 57.031 220.214 57.7353C219.529 58.4639 219.179 59.7754 219.179 61.7427L219.187 62.5587Z" fill="#1D1D1B"/>
<path d="M239.879 75.1054V54.1068H242.843V56.9775C243.337 55.9134 244.202 55.0663 245.276 54.595C246.682 54.0313 248.191 53.7706 249.704 53.8299C252.45 53.8299 254.38 54.3836 255.48 55.4911C256.58 56.5986 257.133 58.5513 257.133 61.32V75.0836H254.03V61.9685C254.03 59.7827 253.703 58.3255 253.062 57.6406C252.421 56.9557 251.161 56.6059 249.303 56.6059C247.114 56.6059 245.509 57.1062 244.489 58.1069C243.469 59.1075 242.962 60.6934 242.967 62.8647V75.069L239.879 75.1054Z" fill="#1D1D1B"/>
<path d="M261.299 56.7589V54.1068H263.87V49.3854H266.98V54.1068H277.264V56.7589H266.98V68.322C266.98 69.9687 267.25 71.0908 267.789 71.6809C268.328 72.2711 269.355 72.5698 270.87 72.5698C272.385 72.5698 273.382 72.2857 273.907 71.7101C274.431 71.1345 274.693 70.0124 274.693 68.322V67.7027H277.847V67.8849C277.847 70.8382 277.361 72.8249 276.39 73.8449C275.407 74.8723 273.382 75.3823 270.301 75.3823C267.891 75.3823 266.223 74.8431 265.283 73.7575C264.344 72.6718 263.877 70.7192 263.877 67.8849V56.7589H261.299Z" fill="#1D1D1B"/>
<path d="M143.898 29.1809C144.829 29.0242 145.772 28.9486 146.717 28.9551C147.864 28.8683 149.002 29.2082 149.914 29.9095C150.242 30.2143 150.5 30.5862 150.671 30.9999C150.842 31.4136 150.922 31.8594 150.905 32.3067C150.929 32.7524 150.864 33.1984 150.714 33.6188C150.564 34.0391 150.332 34.4253 150.031 34.7548C149.566 35.1903 149.018 35.5265 148.42 35.7433C147.821 35.96 147.185 36.0525 146.549 36.0153C146.153 36.0294 145.757 35.9951 145.369 35.9133V40.5109H143.913L143.898 29.1809ZM145.355 34.7111C145.754 34.7986 146.162 34.8377 146.571 34.8277C148.341 34.8277 149.426 33.9606 149.426 32.3795C149.426 30.7985 148.356 30.1281 146.739 30.1281C146.274 30.1133 145.809 30.1549 145.355 30.252V34.7111Z" fill="#1D1D1B"/>
<path d="M156.921 40.5109L156.804 39.469H156.753C156.465 39.8582 156.088 40.1726 155.653 40.3856C155.219 40.5986 154.739 40.7041 154.255 40.6931C153.933 40.7152 153.61 40.6704 153.306 40.5614C153.002 40.4525 152.724 40.2817 152.489 40.06C152.255 39.8382 152.068 39.5702 151.942 39.2728C151.816 38.9755 151.753 38.6553 151.757 38.3324C151.757 36.3432 153.512 35.2503 156.673 35.2722V35.0973C156.705 34.8431 156.68 34.5848 156.598 34.3419C156.516 34.099 156.381 33.8778 156.201 33.6948C156.022 33.5119 155.803 33.3719 155.562 33.2855C155.321 33.199 155.063 33.1683 154.809 33.1956C154.056 33.1962 153.319 33.4083 152.682 33.8077L152.347 32.8167C153.158 32.3291 154.088 32.0768 155.034 32.0881C157.533 32.0881 158.137 33.8077 158.137 35.4543V38.5364C158.127 39.1973 158.173 39.8579 158.276 40.5109H156.921ZM156.702 36.3068C155.085 36.3068 153.243 36.5618 153.243 38.1648C153.222 38.3562 153.244 38.5498 153.306 38.732C153.368 38.9142 153.469 39.0805 153.602 39.2194C153.736 39.3583 153.898 39.4663 154.077 39.5358C154.257 39.6054 154.449 39.6348 154.641 39.622C155.074 39.6308 155.499 39.5024 155.855 39.2551C156.211 39.0077 156.479 38.6541 156.622 38.2449C156.674 38.0897 156.701 37.9275 156.702 37.764V36.3068Z" fill="#1D1D1B"/>
<path d="M161.218 35.7312H161.946C163.199 35.7312 164.044 35.1483 164.044 34.3833C164.044 33.6182 163.388 33.1956 162.456 33.1956C161.756 33.2077 161.072 33.4064 160.475 33.7712L160.104 32.8532C160.927 32.3636 161.87 32.1115 162.828 32.1246C164.08 32.1246 165.595 32.6856 165.595 34.3104C165.549 34.7851 165.341 35.2297 165.007 35.5703C164.674 35.9109 164.233 36.127 163.76 36.1829V36.1829C164.976 36.2849 165.989 37.0354 165.989 38.2449C165.989 40.03 164.182 40.6931 162.456 40.6931C161.531 40.6959 160.62 40.468 159.805 40.03L160.191 39.0245C160.862 39.3891 161.613 39.5818 162.376 39.5856C163.607 39.5856 164.386 38.9954 164.386 38.1793C164.386 37.0719 163.236 36.7658 162.005 36.7658H161.276L161.218 35.7312Z" fill="#1D1D1B"/>
<path d="M167.824 34.9661C167.824 33.9097 167.788 33.0572 167.758 32.2776H169.091L169.157 33.6838H169.193C169.489 33.1786 169.916 32.7632 170.429 32.4821C170.942 32.2011 171.522 32.0649 172.107 32.0881C174.08 32.0881 175.574 33.7712 175.574 36.2704C175.574 39.2358 173.782 40.693 171.852 40.693C171.357 40.7145 170.865 40.6069 170.425 40.3808C169.984 40.1547 169.61 39.8179 169.339 39.4034H169.303V43.8771H167.846L167.824 34.9661ZM169.281 37.152C169.287 37.3574 169.309 37.562 169.346 37.764C169.469 38.263 169.755 38.7064 170.159 39.0235C170.563 39.3405 171.061 39.5128 171.575 39.5127C173.148 39.5127 174.059 38.223 174.059 36.3359C174.059 34.682 173.199 33.2685 171.626 33.2685C171.099 33.285 170.592 33.4766 170.186 33.813C169.78 34.1494 169.497 34.6115 169.383 35.1264C169.323 35.3253 169.289 35.531 169.281 35.7385V37.152Z" fill="#1D1D1B"/>
<path d="M181.983 40.5109L181.866 39.469H181.815C181.526 39.8584 181.147 40.1727 180.711 40.3856C180.276 40.5986 179.795 40.704 179.31 40.6931C178.988 40.7152 178.665 40.6704 178.361 40.5614C178.057 40.4525 177.779 40.2817 177.544 40.06C177.309 39.8382 177.123 39.5702 176.997 39.2728C176.871 38.9755 176.808 38.6553 176.812 38.3324C176.812 36.3432 178.567 35.2503 181.728 35.2722V35.0973C181.762 34.8435 181.737 34.5853 181.656 34.3424C181.575 34.0994 181.44 33.878 181.261 33.6949C181.083 33.5117 180.864 33.3716 180.624 33.2851C180.383 33.1986 180.125 33.168 179.871 33.1956C179.119 33.1962 178.382 33.4083 177.744 33.8077L177.402 32.8167C178.213 32.3291 179.143 32.0768 180.089 32.0881C182.595 32.0881 183.199 33.8077 183.199 35.4543V38.5364C183.189 39.1973 183.235 39.8579 183.338 40.5109H181.983ZM181.764 36.3068C180.14 36.3068 178.298 36.5618 178.298 38.1648C178.277 38.3568 178.298 38.5511 178.361 38.7339C178.424 38.9166 178.526 39.0834 178.66 39.2224C178.794 39.3614 178.957 39.4693 179.137 39.5383C179.317 39.6074 179.511 39.6359 179.703 39.622C180.136 39.6327 180.561 39.5049 180.916 39.2572C181.271 39.0095 181.538 38.6548 181.677 38.2449C181.731 38.0901 181.76 37.9279 181.764 37.764V36.3068Z" fill="#1D1D1B"/>
<path d="M191.772 29.4869C191.212 29.6549 190.64 29.7791 190.06 29.8585C189.493 29.8954 188.94 30.0521 188.438 30.3184C187.936 30.5846 187.496 30.9544 187.147 31.4032C186.632 32.2254 186.324 33.1606 186.251 34.1282H186.302C186.545 33.5774 186.943 33.1091 187.447 32.7805C187.952 32.4519 188.541 32.2772 189.143 32.2775C191.153 32.2775 192.624 33.7348 192.624 36.3432C192.624 38.9516 191.24 40.7149 188.837 40.7149C185.967 40.7149 185.02 37.9461 185.02 35.2066C184.927 33.5879 185.373 31.984 186.287 30.6454C186.703 30.0919 187.232 29.6329 187.839 29.2988C188.445 28.9647 189.115 28.7631 189.805 28.7073C190.492 28.6181 191.169 28.4694 191.83 28.2629L191.772 29.4869ZM188.859 33.3777C188.476 33.3685 188.099 33.4693 187.773 33.6682C187.446 33.8672 187.183 34.1558 187.016 34.4998C186.737 35.0424 186.6 35.6461 186.615 36.2558C186.615 37.6183 187.271 39.571 188.895 39.571C190.519 39.571 191.138 37.9753 191.138 36.4598C191.124 35.1118 190.607 33.3777 188.844 33.3777H188.859Z" fill="#1D1D1B"/>
<path d="M201.91 36.3214C201.91 39.367 199.813 40.6931 197.839 40.6931C195.654 40.6931 193.913 39.061 193.913 36.4598C193.913 33.7057 195.705 32.0881 197.97 32.0881C200.235 32.0881 201.91 33.8077 201.91 36.3214ZM195.421 36.4088C195.421 38.2158 196.448 39.571 197.904 39.571C199.361 39.571 200.388 38.2303 200.388 36.3724C200.388 34.9807 199.696 33.2102 197.941 33.2102C196.186 33.2102 195.421 34.8423 195.421 36.4088Z" fill="#1D1D1B"/>
<path d="M209.172 32.2775V33.4652H206.623V40.5109H205.166V33.4652H202.617V32.2775H209.172Z" fill="#1D1D1B"/>
<path d="M211.947 32.2775V35.8477H212.304L215.377 32.2775H217.184L213.622 36.0007C214.94 36.1392 215.734 37.0208 216.375 38.4999C216.623 39.1883 216.915 39.86 217.249 40.5109H215.698C215.407 39.9718 215.163 39.4087 214.969 38.8278C214.409 37.4944 213.651 36.8824 212.267 36.8824H211.976V40.5254H210.519V32.2921L211.947 32.2775Z" fill="#1D1D1B"/>
<path d="M223.273 40.5109L223.149 39.469H223.098C222.81 39.8582 222.433 40.1726 221.998 40.3856C221.563 40.5986 221.083 40.7041 220.6 40.6931C220.277 40.7152 219.954 40.6704 219.65 40.5614C219.346 40.4525 219.068 40.2817 218.834 40.06C218.599 39.8382 218.413 39.5702 218.287 39.2728C218.161 38.9755 218.098 38.6553 218.101 38.3324C218.101 36.3432 219.857 35.2503 223.018 35.2722V35.0973C223.051 34.8435 223.026 34.5853 222.946 34.3424C222.865 34.0994 222.73 33.878 222.551 33.6949C222.372 33.5117 222.154 33.3716 221.913 33.2851C221.672 33.1986 221.415 33.168 221.16 33.1956C220.406 33.1952 219.666 33.4073 219.026 33.8077L218.691 32.8167C219.502 32.3291 220.433 32.0768 221.379 32.0881C223.877 32.0881 224.489 33.8077 224.489 35.4543V38.5364C224.477 39.1971 224.52 39.8576 224.62 40.5109H223.273ZM223.047 36.3068C221.43 36.3068 219.587 36.5618 219.587 38.1648C219.567 38.3562 219.588 38.5498 219.65 38.732C219.712 38.9142 219.814 39.0805 219.947 39.2194C220.08 39.3583 220.242 39.4663 220.422 39.5358C220.601 39.6054 220.794 39.6348 220.986 39.622C221.419 39.6308 221.844 39.5024 222.199 39.2551C222.555 39.0077 222.824 38.6541 222.967 38.2449C223.018 38.0897 223.045 37.9275 223.047 37.764V36.3068Z" fill="#1D1D1B"/>
<path d="M236.295 40.2048C235.558 40.5353 234.757 40.6971 233.95 40.6784C231.481 40.6784 229.879 38.9953 229.879 36.4743C229.849 35.8925 229.942 35.311 230.152 34.7674C230.361 34.2237 230.682 33.73 231.094 33.3181C231.505 32.9062 231.999 32.5852 232.542 32.3758C233.086 32.1665 233.667 32.0734 234.249 32.1027C234.959 32.0958 235.662 32.2425 236.31 32.5325L235.968 33.6838C235.438 33.4066 234.846 33.2734 234.249 33.2976C232.37 33.2976 231.335 34.6892 231.335 36.4088C231.335 38.3177 232.552 39.4908 234.176 39.4908C234.805 39.4913 235.427 39.3519 235.997 39.0828L236.295 40.2048Z" fill="#1D1D1B"/>
<path d="M242.617 40.5109L242.501 39.469H242.435C242.146 39.8584 241.767 40.1727 241.331 40.3856C240.895 40.5986 240.415 40.704 239.93 40.6931C239.608 40.7152 239.284 40.6704 238.98 40.5614C238.677 40.4525 238.399 40.2817 238.164 40.06C237.929 39.8382 237.743 39.5702 237.617 39.2728C237.491 38.9755 237.428 38.6553 237.431 38.3324C237.431 36.3432 239.187 35.2503 242.348 35.2722V35.0973C242.381 34.8435 242.357 34.5853 242.276 34.3424C242.195 34.0994 242.06 33.878 241.881 33.6949C241.702 33.5117 241.484 33.3716 241.243 33.2851C241.002 33.1986 240.745 33.168 240.49 33.1956C239.738 33.1962 239.001 33.4083 238.364 33.8077L238.065 32.8167C238.876 32.3291 239.807 32.0768 240.753 32.0881C243.258 32.0881 243.863 33.8077 243.863 35.4543V38.5364C243.853 39.1973 243.899 39.8579 244.001 40.5109H242.617ZM242.399 36.3068C240.775 36.3068 238.932 36.5618 238.932 38.1648C238.911 38.3568 238.933 38.5511 238.995 38.7339C239.058 38.9166 239.16 39.0834 239.294 39.2224C239.428 39.3614 239.591 39.4693 239.771 39.5383C239.952 39.6074 240.145 39.6359 240.338 39.622C240.77 39.6327 241.195 39.5049 241.55 39.2572C241.905 39.0095 242.172 38.6548 242.311 38.2449C242.365 38.0901 242.394 37.9279 242.399 37.764V36.3068Z" fill="#1D1D1B"/>
<path d="M247.606 32.2776V35.7458C247.606 37.0573 247.606 37.8733 247.519 39.0464H247.57C248.058 38.0482 248.349 37.4653 248.888 36.5108L251.437 32.263H253.178V40.4963H251.758V37.0063C251.758 35.6656 251.794 34.9662 251.86 33.6401H251.809C251.284 34.6966 250.935 35.3596 250.461 36.1902C249.682 37.4653 248.786 39.0464 247.905 40.4963H246.201V32.263L247.606 32.2776ZM248.568 28.926C248.619 29.6546 248.968 30.2156 249.646 30.2156C250.323 30.2156 250.709 29.6691 250.797 28.926H251.86C251.87 29.2171 251.817 29.5069 251.706 29.7761C251.594 30.0452 251.427 30.2876 251.215 30.4869C251.002 30.6862 250.75 30.8379 250.474 30.9318C250.199 31.0258 249.906 31.0598 249.617 31.0317C249.333 31.0542 249.048 31.0155 248.781 30.9181C248.514 30.8206 248.271 30.6668 248.068 30.467C247.866 30.2673 247.709 30.0262 247.608 29.7603C247.507 29.4944 247.464 29.2098 247.483 28.926H248.568Z" fill="#1D1D1B"/>
<path d="M261.073 32.2775V33.4652H258.517V40.5109H257.06V33.4652H254.504V32.2775H261.073Z" fill="#1D1D1B"/>
<path d="M269.551 36.3214C269.551 39.367 267.461 40.6931 265.48 40.6931C263.295 40.6931 261.561 39.061 261.561 36.4598C261.561 33.7057 263.353 32.0881 265.618 32.0881C267.883 32.0881 269.551 33.8077 269.551 36.3214ZM263.069 36.4088C263.069 38.2158 264.096 39.571 265.553 39.571C267.009 39.571 268.036 38.2303 268.036 36.3724C268.036 34.9807 267.344 33.2102 265.582 33.2102C263.819 33.2102 263.069 34.8423 263.069 36.4088V36.4088Z" fill="#1D1D1B"/>
<path d="M271.394 32.3796C272.257 32.2508 273.129 32.1875 274.001 32.1901C275.371 32.1901 277.643 32.4087 277.643 34.2448C277.626 34.7057 277.444 35.1453 277.132 35.4845C276.82 35.8237 276.397 36.0404 275.939 36.0955V36.1319C277.141 36.2995 278.022 36.9771 278.022 38.1721C278.022 40.3579 275.312 40.6056 273.71 40.6056C272.8 40.6056 271.853 40.5328 271.409 40.5036L271.394 32.3796ZM272.8 39.52C273.198 39.5712 273.6 39.5956 274.001 39.5929C274.999 39.5929 276.485 39.3524 276.485 38.1356C276.485 36.9188 275.298 36.6784 273.878 36.6784H272.8V39.52ZM272.8 35.7312H273.914C275.014 35.7312 276.15 35.4033 276.15 34.4343C276.15 33.6182 275.422 33.2248 273.965 33.2248C273.58 33.2266 273.196 33.2509 272.814 33.2976L272.8 35.7312Z" fill="#1D1D1B"/>
</g>
<defs>
<clipPath id="clip0_2_121">
<rect width="278" height="85" fill="white"/>
</clipPath>
</defs>
</svg>
