<svg width="260" height="80" viewBox="0 0 260 80" fill="none" xmlns="http://www.w3.org/2000/svg">
<g clip-path="url(#clip0_2_12)">
<path d="M0 25.5718H4.12796V26.2575C4.06257 27.9096 4.22999 29.5627 4.62522 31.1675C4.86313 32.0956 5.45236 32.893 6.26686 33.3893C7.12432 33.788 8.04865 34.0206 8.99159 34.0751C10.2313 34.2168 12.7903 34.2877 16.6685 34.2877C18.3111 34.3302 19.9533 34.1922 21.5662 33.8762C22.5456 33.7252 23.4571 33.2808 24.1819 32.6007C24.5581 32.1066 24.7936 31.5187 24.8631 30.9001C25.0273 29.8225 25.1002 28.7328 25.0811 27.6427C25.0811 24.8997 24.8086 23.1373 24.25 22.431C23.6915 21.7247 22.5948 21.2995 20.9599 21.1624L9.5706 20.2572C6.16015 19.992 3.79872 19.1325 2.48631 17.6787C1.1739 16.2249 0.519969 13.7814 0.52451 10.348C0.480028 8.58114 0.709857 6.81808 1.20569 5.12258C1.59748 3.86226 2.31719 2.73048 3.29011 1.84468C4.19388 1.106 5.27431 0.618913 6.42354 0.432026C8.7746 0.0784417 11.152 -0.0661173 13.5283 8.03329e-06H14.8497C18.6417 8.03329e-06 21.3119 0.18516 22.8604 0.555467C24.2925 0.862616 25.6294 1.51437 26.7568 2.455C27.5183 3.1373 28.0652 4.02873 28.3303 5.01972C28.6993 6.35875 28.8714 7.74498 28.8412 9.13424C28.8412 9.61427 28.8412 9.98457 28.8412 10.2452C28.8412 10.5057 28.8412 10.732 28.8412 10.9309H24.6315V10.0051C24.6569 8.95511 24.577 7.90516 24.3931 6.87125C24.2981 6.27067 24.0359 5.70952 23.637 5.25287C22.8561 4.62565 21.9078 4.24615 20.9123 4.16253C18.4236 3.89961 15.9209 3.79654 13.4193 3.85394C9.60465 3.85394 7.20917 4.28825 6.23281 5.15687C5.25645 6.02549 4.76827 7.76045 4.76827 10.3617C4.76827 12.4944 5.08843 13.9619 5.72874 14.778C6.36905 15.594 7.59517 16.0604 9.41392 16.2112L21.0212 17.2193C24.0639 17.4799 26.2005 18.3256 27.4312 19.7566C28.6618 21.1875 29.2749 23.5694 29.2704 26.9021C29.3268 28.743 29.1691 30.5842 28.8003 32.3881C28.5181 33.6625 27.8804 34.8293 26.9621 35.7513C26.0438 36.6733 24.8831 37.3122 23.6165 37.593C22.1043 38.0045 19.341 38.2102 15.3266 38.2102H13.5283C11.1029 38.2916 8.67572 38.1146 6.2873 37.6822C4.9729 37.384 3.75454 36.7565 2.74516 35.8581C1.77588 34.9879 1.06797 33.8619 0.701616 32.6076C0.210466 30.9181 -0.0192877 29.1626 0.0204346 27.4027L0 25.5718Z" fill="white"/>
<path d="M48.8271 35.6249C48.3608 36.4665 47.6011 37.1042 46.695 37.4147C45.375 37.8375 43.9919 38.0255 42.6079 37.9702C39.5426 37.9702 37.499 37.529 36.4772 36.6467C35.4282 35.7689 34.9105 34.1231 34.9105 31.723C34.8773 30.6232 34.9988 29.5242 35.2716 28.4588C35.4841 27.7223 35.9027 27.0629 36.4772 26.5592C37.0759 26.1061 37.7791 25.8135 38.5208 25.7089C39.8258 25.5108 41.1454 25.4259 42.4648 25.4552C43.841 25.4041 45.2174 25.5519 46.5519 25.8941C47.4046 26.1276 48.1522 26.6478 48.6704 27.3684V23.9397C48.6704 22.3281 48.357 21.2789 47.7372 20.8058C47.1173 20.3326 45.5574 20.12 43.0575 20.12C41.241 20.12 40.0376 20.3097 39.4472 20.6892C39.1229 20.9388 38.867 21.2675 38.7037 21.6442C38.5404 22.0209 38.4751 22.4333 38.514 22.8425H35.6258V22.3899C35.6258 20.7029 36.1639 19.496 37.2538 18.7759C38.3437 18.0559 40.2169 17.6993 42.8735 17.6993C44.4558 17.6705 46.038 17.7576 47.6077 17.9599C48.4622 18.055 49.2842 18.3433 50.0123 18.8034C50.5674 19.2326 50.9883 19.8134 51.2248 20.4766C51.517 21.5945 51.6365 22.7509 51.579 23.9054V37.737H48.9497L48.8271 35.6249ZM48.6772 32.6762V30.6189C48.681 30.1697 48.546 29.7305 48.2909 29.3619C48.0359 28.9934 47.6734 28.7137 47.2535 28.5616C45.7993 28.0315 44.2548 27.7984 42.71 27.8759C40.8073 27.8759 39.538 28.1045 38.9022 28.5616C38.2619 29.0485 37.9418 29.9674 37.9418 31.3047C37.9418 32.8545 38.2801 33.8899 38.9567 34.4111C39.6379 34.9254 41.0003 35.186 43.0438 35.186C44.4744 35.2487 45.9025 35.0153 47.2399 34.5003C47.6345 34.378 47.983 34.1382 48.2395 33.8126C48.4961 33.487 48.6487 33.0908 48.6772 32.6762V32.6762Z" fill="white"/>
<path d="M54.658 17.9462H57.5666L63.4043 34.9528L69.2557 17.9462H72.069L65.298 37.7096H61.5107L54.658 17.9462Z" fill="white"/>
<path d="M82.5455 37.9702C79.6164 37.9702 77.5729 37.3941 76.4149 36.2421C75.2501 35.0969 74.6643 33.0739 74.6643 30.1869V25.4895C74.6643 22.591 75.2455 20.5657 76.4081 19.4137C77.5706 18.2616 79.6142 17.6856 82.5387 17.6856H83.9011C86.8301 17.6856 88.8737 18.2616 90.0317 19.4137C91.1897 20.5657 91.7733 22.591 91.7823 25.4895V28.4862H77.6683C77.6683 28.6851 77.6683 28.9114 77.6683 29.1719C77.6683 29.4325 77.6683 29.7617 77.6683 30.2006C77.6683 32.2396 77.9907 33.6111 78.6355 34.3151C79.2827 35.0009 80.5905 35.3574 82.5523 35.3574H83.9147C85.6631 35.3574 86.8801 35.1037 87.5658 34.5963C87.9433 34.267 88.2454 33.8592 88.4512 33.401C88.657 32.9429 88.7616 32.4452 88.7579 31.9424H91.7755C91.6257 34.0819 90.9445 35.6317 89.732 36.5781C88.5195 37.5244 86.5917 38.0045 83.9556 38.0045L82.5455 37.9702ZM77.6614 25.9078H88.7715V25.1329C88.7715 23.2813 88.4423 22.0241 87.7838 21.3612C87.1026 20.6755 85.822 20.3669 83.8738 20.3669H82.5115C80.5701 20.3669 79.2759 20.7029 78.6355 21.3612C77.9952 22.0195 77.6614 23.2813 77.6614 25.1329V25.9078Z" fill="white"/>
<path d="M21.137 80V42.743H39.0112C43.6524 42.743 46.9084 43.6688 48.7794 45.5203C50.6504 47.3718 51.5858 50.6086 51.5858 55.2306V67.5193C51.5858 72.1367 50.6458 75.3757 48.7657 77.2364C46.8857 79.0971 43.6342 80.0274 39.0112 80.0274L21.137 80ZM25.2241 76.3175H38.3437C41.9085 76.3175 44.2949 75.7095 45.5029 74.4934C46.7086 73.2796 47.3148 70.9549 47.3148 67.5399V55.5049C47.3148 51.8978 46.7154 49.4863 45.5165 48.2702C44.3108 47.0564 41.9267 46.4461 38.3437 46.4461H25.2173L25.2241 76.3175Z" fill="white"/>
<path d="M62.5733 70.948C59.6351 70.948 57.5916 70.372 56.4427 69.2199C55.271 68.0679 54.6852 66.0518 54.6852 63.1579V58.4673C54.6852 55.5666 55.271 53.5368 56.429 52.3915C57.587 51.2463 59.6374 50.6635 62.5597 50.6635H63.922C66.8602 50.6635 68.9037 51.2395 70.0527 52.3915C71.2243 53.5368 71.8033 55.5666 71.8033 58.4673V61.4504H57.696C57.696 61.6492 57.696 61.8755 57.696 62.1361C57.696 62.3967 57.696 62.719 57.696 63.1579C57.696 65.2014 58.0207 66.5729 58.6701 67.2724C59.3104 67.9582 60.6183 68.3147 62.5801 68.3147H63.9425C65.6908 68.3147 66.9079 68.061 67.5936 67.5536C67.9709 67.2238 68.2733 66.816 68.4802 66.3581C68.6871 65.9002 68.7936 65.4028 68.7925 64.8997H71.8101C71.6602 67.0393 70.9791 68.5845 69.7666 69.5354C68.5541 70.4863 66.6104 70.9572 63.9357 70.948H62.5733ZM57.6892 58.8788H68.7993V58.1107C68.7993 56.2592 68.4655 55.0043 67.8116 54.3391C67.1576 53.6739 65.843 53.3448 63.8948 53.3448H62.5324C60.5979 53.3448 59.3059 53.6762 58.6565 54.3391C58.0071 55.002 57.6847 56.2592 57.6892 58.1107V58.8788Z" fill="white"/>
<path d="M74.2692 50.924H77.1778L83.0087 67.9239L88.8601 50.924H91.6734L84.9297 70.6875H81.1423L74.2692 50.924Z" fill="white"/>
<path d="M102.157 70.948C99.2186 70.948 97.175 70.372 96.0261 69.2199C94.8613 68.0679 94.2755 66.0518 94.2755 63.1579V58.4673C94.2755 55.5666 94.8545 53.5368 96.0193 52.3915C97.1841 51.2463 99.2208 50.6635 102.15 50.6635H103.512C106.45 50.6635 108.494 51.2395 109.643 52.3915C110.815 53.5368 111.4 55.5666 111.4 58.4673V61.4504H97.2863C97.2863 61.6492 97.2863 61.8755 97.2863 62.1361C97.2863 62.3967 97.2863 62.719 97.2863 63.1579C97.2863 65.2014 97.6087 66.5729 98.2536 67.2724C98.9007 67.9582 100.202 68.3147 102.17 68.3147H103.533C105.29 68.3147 106.503 68.061 107.191 67.5536C107.566 67.2223 107.866 66.8141 108.072 66.3564C108.277 65.8987 108.383 65.402 108.383 64.8997H111.4C111.25 67.0393 110.569 68.5845 109.357 69.5354C108.137 70.4886 106.217 70.9618 103.58 70.9618L102.157 70.948ZM97.2727 58.8788H108.383V58.1107C108.383 56.2592 108.053 55.002 107.395 54.3391C106.714 53.6533 105.433 53.3448 103.478 53.3448H102.116C100.177 53.3448 98.8825 53.6762 98.2331 54.3391C97.5928 55.0249 97.2658 56.2592 97.2658 58.1107L97.2727 58.8788Z" fill="white"/>
<path d="M116.625 70.6875V42.743H119.513V70.6875H116.625Z" fill="white"/>
<path d="M132.653 70.9481C129.715 70.9481 127.672 70.372 126.523 69.2199C125.351 68.0679 124.772 66.0518 124.772 63.1579V58.4673C124.772 55.5666 125.351 53.5368 126.516 52.3915C127.681 51.2463 129.717 50.6635 132.646 50.6635H134.009C136.942 50.6635 138.986 51.2395 140.139 52.3915C141.311 53.5368 141.89 55.5666 141.89 58.4673V63.1579C141.89 66.0655 141.311 68.0907 140.153 69.2337C138.988 70.372 136.945 70.9481 134.022 70.9481H132.653ZM138.866 62.5064V59.1256C138.866 56.6386 138.552 55.0523 137.926 54.3665C137.299 53.6808 135.977 53.3402 133.961 53.3448H132.599C130.601 53.3448 129.293 53.6831 128.675 54.3597C128.057 55.0363 127.751 56.6249 127.756 59.1256V62.5064C127.756 65.0163 128.069 66.6209 128.689 67.3067C129.309 67.9924 130.616 68.3216 132.599 68.3216H133.961C135.964 68.3216 137.281 67.9787 137.912 67.293C138.559 66.5798 138.866 64.9957 138.866 62.5064Z" fill="white"/>
<path d="M147.156 50.9241H149.935V54.0031C150.346 52.9193 151.129 52.0194 152.142 51.4658C153.398 50.8762 154.776 50.6009 156.161 50.6635C158.954 50.6635 160.929 51.2464 162.073 52.4053C163.218 53.5642 163.804 55.594 163.804 58.4673V63.1579C163.804 66.0243 163.227 68.0382 162.073 69.1994C160.929 70.3652 158.954 70.9481 156.161 70.9481C154.84 71.0077 153.523 70.7614 152.312 70.228C151.324 69.7078 150.528 68.8805 150.044 67.869V78.2445H147.156V50.9241ZM150.044 62.431C150.044 64.4837 150.518 65.974 151.467 66.9021C152.417 67.8302 153.942 68.2873 156.045 68.2736C157.943 68.2736 159.208 67.9307 159.839 67.245C160.466 66.5592 160.779 64.9683 160.779 62.479V59.0982C160.779 56.593 160.466 54.9929 159.839 54.298C159.212 53.6031 157.948 53.2602 156.045 53.2693C153.947 53.2693 152.421 53.7265 151.467 54.6408C150.521 55.5666 150.044 57.0684 150.044 59.1325V62.431Z" fill="white"/>
<path d="M169.451 70.6875V50.9241H172.284V53.6259C172.661 52.6463 173.391 51.8456 174.328 51.3835C175.529 50.8553 176.833 50.6091 178.142 50.6635C179.486 50.5955 180.826 50.8591 182.046 51.4315C183.018 51.9852 183.762 52.8704 184.144 53.9277C184.623 52.8799 185.413 52.0077 186.405 51.4315C187.552 50.8725 188.818 50.6086 190.09 50.6635C192.656 50.6635 194.439 51.1755 195.438 52.1995C196.437 53.2236 196.934 55.0683 196.929 57.7336V70.6875H194.041V58.6594C194.041 56.4512 193.76 55.0089 193.197 54.3323C192.631 53.6465 191.528 53.3105 189.886 53.3105C188.07 53.3105 186.748 53.7677 185.922 54.682C185.097 55.6078 184.682 57.1096 184.682 59.1737V70.66H181.869V57.2878C181.869 55.7175 181.589 54.6614 181.024 54.1128C180.458 53.5642 179.375 53.2899 177.788 53.2899C175.922 53.2899 174.559 53.7654 173.701 54.7163C172.843 55.6672 172.405 57.1553 172.386 59.1805V70.6669L169.451 70.6875Z" fill="white"/>
<path d="M209.879 70.948C206.95 70.948 204.906 70.372 203.748 69.2199C202.583 68.0679 201.997 66.0518 201.997 63.1579V58.4673C201.997 55.5666 202.576 53.5368 203.741 52.3915C204.906 51.2463 206.943 50.6635 209.872 50.6635H211.234C214.168 50.6635 216.211 51.2395 217.365 52.3915C218.536 53.5368 219.122 55.5666 219.122 58.4673V61.4504H205.008C205.008 61.6492 205.008 61.8755 205.008 62.1361C205.008 62.3967 205.008 62.719 205.008 63.1579C205.008 65.2014 205.331 66.5729 205.976 67.2724C206.623 67.9582 207.924 68.3147 209.892 68.3147H211.255C213.012 68.3147 214.225 68.061 214.913 67.5536C215.288 67.2223 215.588 66.8141 215.794 66.3564C215.999 65.8987 216.105 65.402 216.105 64.8997H219.122C218.972 67.0393 218.291 68.5845 217.079 69.5354C215.859 70.4886 213.939 70.9618 211.302 70.9618L209.879 70.948ZM204.995 58.8788H216.105V58.1107C216.105 56.2592 215.775 55.002 215.117 54.3391C214.436 53.6533 213.155 53.3448 211.2 53.3448H209.838C207.899 53.3448 206.604 53.6762 205.955 54.3391C205.315 55.0249 204.988 56.2592 204.988 58.1107L204.995 58.8788Z" fill="white"/>
<path d="M224.347 70.6875V50.9241H227.119V53.6259C227.581 52.6244 228.39 51.8271 229.395 51.3835C230.709 50.8531 232.121 50.6077 233.536 50.6635C236.104 50.6635 237.909 51.1846 238.938 52.227C239.966 53.2693 240.484 55.1071 240.484 57.713V70.6669H237.582V58.3233C237.582 56.2661 237.276 54.8946 236.676 54.25C236.077 53.6053 234.898 53.2762 233.161 53.2762C231.113 53.2762 229.613 53.7471 228.659 54.6888C227.705 55.6306 227.231 57.1233 227.235 59.1668V70.6532L224.347 70.6875Z" fill="white"/>
<path d="M244.381 53.4202V50.9241H246.785V46.4804H249.694V50.9241H259.312V53.4202H249.694V64.3031C249.694 65.8529 249.946 66.909 250.45 67.4644C250.954 68.0199 251.914 68.301 253.331 68.301C254.748 68.301 255.681 68.0336 256.172 67.4919C256.662 66.9501 256.907 65.8941 256.907 64.3031V63.7202H259.857V63.8917C259.857 66.6712 259.403 68.5411 258.495 69.5011C257.575 70.468 255.681 70.9481 252.8 70.9481C250.545 70.9481 248.985 70.4406 248.107 69.4188C247.228 68.3971 246.792 66.5592 246.792 63.8917V53.4202H244.381Z" fill="white"/>
<path d="M134.581 27.4644C135.452 27.3169 136.334 27.2457 137.217 27.2518C138.29 27.1702 139.355 27.4901 140.207 28.1502C140.514 28.437 140.756 28.787 140.915 29.1764C141.075 29.5658 141.15 29.9853 141.134 30.4063C141.157 30.8258 141.096 31.2456 140.956 31.6412C140.815 32.0368 140.598 32.4003 140.316 32.7104C139.882 33.1202 139.369 33.4368 138.81 33.6407C138.25 33.8447 137.655 33.9318 137.06 33.8968C136.69 33.91 136.32 33.8778 135.957 33.8008V38.1279H134.595L134.581 27.4644ZM135.943 32.6693C136.317 32.7516 136.699 32.7885 137.081 32.779C138.736 32.779 139.751 31.963 139.751 30.4749C139.751 28.9868 138.75 28.3559 137.238 28.3559C136.803 28.3419 136.368 28.3811 135.943 28.4725V32.6693Z" fill="white"/>
<path d="M146.76 38.1279L146.651 37.1473H146.604C146.334 37.5136 145.982 37.8095 145.575 38.0099C145.168 38.2104 144.72 38.3097 144.267 38.2993C143.966 38.3202 143.664 38.278 143.38 38.1754C143.095 38.0729 142.835 37.9122 142.616 37.7035C142.396 37.4947 142.222 37.2425 142.104 36.9627C141.986 36.6828 141.927 36.3814 141.931 36.0775C141.931 34.2054 143.573 33.1767 146.529 33.1973V33.0327C146.559 32.7934 146.535 32.5504 146.459 32.3218C146.382 32.0932 146.255 31.885 146.087 31.7128C145.92 31.5406 145.715 31.4088 145.49 31.3275C145.264 31.2461 145.023 31.2172 144.785 31.2429C144.082 31.2435 143.392 31.4431 142.796 31.8189L142.483 30.8863C143.241 30.4274 144.111 30.1899 144.996 30.2006C147.333 30.2006 147.898 31.8189 147.898 33.3687V36.2695C147.889 36.8915 147.932 37.5133 148.027 38.1279H146.76ZM146.556 34.1711C145.044 34.1711 143.321 34.4111 143.321 35.9197C143.301 36.0999 143.321 36.2821 143.379 36.4536C143.438 36.6251 143.532 36.7817 143.657 36.9124C143.782 37.0431 143.933 37.1447 144.101 37.2102C144.269 37.2756 144.449 37.3033 144.628 37.2913C145.034 37.2996 145.431 37.1787 145.764 36.9459C146.096 36.7131 146.348 36.3803 146.481 35.9952C146.529 35.8491 146.555 35.6964 146.556 35.5426V34.1711Z" fill="white"/>
<path d="M150.779 33.6293H151.461C152.632 33.6293 153.422 33.0807 153.422 32.3607C153.422 31.6407 152.809 31.2429 151.937 31.2429C151.283 31.2543 150.643 31.4413 150.085 31.7847L149.737 30.9206C150.507 30.4599 151.389 30.2225 152.285 30.2349C153.456 30.2349 154.873 30.7629 154.873 32.2921C154.83 32.7389 154.636 33.1573 154.324 33.4779C154.011 33.7984 153.6 34.0019 153.157 34.0545V34.0545C154.294 34.1505 155.241 34.8568 155.241 35.9952C155.241 37.6753 153.552 38.2993 151.937 38.2993C151.072 38.302 150.22 38.0875 149.458 37.6753L149.819 36.7289C150.446 37.0721 151.148 37.2535 151.862 37.257C153.014 37.257 153.743 36.7015 153.743 35.9335C153.743 34.8911 152.666 34.6031 151.515 34.6031H150.834L150.779 33.6293Z" fill="white"/>
<path d="M156.958 32.9093C156.958 31.915 156.924 31.1126 156.896 30.3789H158.143L158.204 31.7024H158.238C158.515 31.2269 158.914 30.836 159.394 30.5714C159.874 30.3069 160.416 30.1787 160.963 30.2006C162.809 30.2006 164.206 31.7847 164.206 34.1368C164.206 36.9278 162.53 38.2993 160.725 38.2993C160.262 38.3195 159.802 38.2183 159.39 38.0055C158.978 37.7927 158.628 37.4756 158.375 37.0855H158.341V41.2961H156.978L156.958 32.9093ZM158.32 34.9666C158.326 35.1599 158.346 35.3525 158.381 35.5426C158.496 36.0122 158.763 36.4296 159.141 36.728C159.519 37.0264 159.986 37.1885 160.466 37.1884C161.937 37.1884 162.789 35.9746 162.789 34.1985C162.789 32.6419 161.985 31.3115 160.514 31.3115C160.021 31.327 159.547 31.5074 159.167 31.824C158.787 32.1406 158.523 32.5755 158.415 33.0602C158.36 33.2473 158.327 33.4409 158.32 33.6362V34.9666Z" fill="white"/>
<path d="M170.2 38.1279L170.091 37.1473H170.043C169.772 37.5137 169.418 37.8096 169.011 38.01C168.603 38.2104 168.154 38.3096 167.7 38.2993C167.399 38.3202 167.096 38.278 166.812 38.1754C166.528 38.0729 166.268 37.9122 166.048 37.7035C165.829 37.4947 165.655 37.2425 165.537 36.9627C165.419 36.6828 165.36 36.3814 165.364 36.0775C165.364 34.2054 167.005 33.1767 169.961 33.1973V33.0327C169.993 32.7938 169.97 32.5509 169.894 32.3222C169.819 32.0935 169.692 31.8852 169.525 31.7128C169.358 31.5404 169.154 31.4085 168.929 31.3271C168.703 31.2458 168.462 31.217 168.224 31.2429C167.521 31.2435 166.832 31.4431 166.235 31.8189L165.915 30.8863C166.674 30.4274 167.544 30.1899 168.429 30.2006C170.772 30.2006 171.337 31.8189 171.337 33.3687V36.2695C171.328 36.8915 171.371 37.5133 171.467 38.1279H170.2ZM169.996 34.1711C168.477 34.1711 166.753 34.4111 166.753 35.9197C166.734 36.1005 166.754 36.2834 166.812 36.4554C166.871 36.6274 166.966 36.7843 167.092 36.9152C167.217 37.046 167.37 37.1475 167.538 37.2125C167.707 37.2775 167.888 37.3044 168.068 37.2913C168.472 37.3013 168.87 37.181 169.202 36.9479C169.534 36.7148 169.783 36.381 169.914 35.9952C169.964 35.8494 169.992 35.6968 169.996 35.5426V34.1711Z" fill="white"/>
<path d="M179.355 27.7524C178.831 27.9105 178.296 28.0274 177.754 28.1022C177.224 28.1368 176.707 28.2843 176.237 28.5349C175.767 28.7855 175.356 29.1335 175.029 29.556C174.548 30.3298 174.26 31.21 174.192 32.1207H174.239C174.467 31.6022 174.839 31.1615 175.31 30.8523C175.782 30.543 176.333 30.3785 176.896 30.3789C178.776 30.3789 180.152 31.7504 180.152 34.2054C180.152 36.6604 178.858 38.3199 176.61 38.3199C173.926 38.3199 173.04 35.714 173.04 33.1356C172.954 31.6121 173.37 30.1026 174.226 28.8428C174.615 28.3218 175.109 27.8898 175.676 27.5754C176.243 27.2609 176.87 27.0712 177.516 27.0187C178.158 26.9347 178.791 26.7947 179.409 26.6004L179.355 27.7524ZM176.63 31.4144C176.273 31.4056 175.92 31.5005 175.615 31.6878C175.309 31.875 175.063 32.1467 174.907 32.4704C174.647 32.9811 174.518 33.5493 174.532 34.1231C174.532 35.4054 175.145 37.2433 176.664 37.2433C178.183 37.2433 178.762 35.7415 178.762 34.3151C178.749 33.0465 178.265 31.4144 176.617 31.4144H176.63Z" fill="white"/>
<path d="M188.837 34.1848C188.837 37.0513 186.875 38.2993 185.029 38.2993C182.986 38.2993 181.358 36.7633 181.358 34.3151C181.358 31.723 183.033 30.2006 185.152 30.2006C187.27 30.2006 188.837 31.819 188.837 34.1848ZM182.768 34.2671C182.768 35.9678 183.728 37.2433 185.09 37.2433C186.453 37.2433 187.413 35.9815 187.413 34.2328C187.413 32.923 186.766 31.2566 185.125 31.2566C183.483 31.2566 182.768 32.7927 182.768 34.2671Z" fill="white"/>
<path d="M195.628 30.3789V31.4967H193.244V38.1279H191.882V31.4967H189.498V30.3789H195.628Z" fill="white"/>
<path d="M198.224 30.3789V33.7391H198.557L201.432 30.3789H203.121L199.79 33.8831C201.023 34.0134 201.766 34.8431 202.365 36.2352C202.597 36.8831 202.87 37.5153 203.183 38.1279H201.732C201.46 37.6205 201.232 37.0905 201.051 36.5438C200.526 35.2889 199.818 34.7128 198.523 34.7128H198.251V38.1416H196.889V30.3926L198.224 30.3789Z" fill="white"/>
<path d="M208.816 38.1279L208.7 37.1473H208.653C208.383 37.5136 208.03 37.8095 207.624 38.0099C207.217 38.2104 206.769 38.3097 206.316 38.2993C206.015 38.3202 205.713 38.278 205.428 38.1754C205.144 38.0729 204.884 37.9122 204.665 37.7035C204.445 37.4947 204.271 37.2425 204.153 36.9627C204.035 36.6828 203.976 36.3814 203.98 36.0775C203.98 34.2054 205.621 33.1767 208.578 33.1973V33.0327C208.609 32.7938 208.586 32.5509 208.51 32.3222C208.435 32.0935 208.309 31.8852 208.141 31.7128C207.974 31.5404 207.77 31.4085 207.545 31.3271C207.319 31.2458 207.079 31.217 206.841 31.2429C206.135 31.2425 205.443 31.4422 204.845 31.8189L204.531 30.8863C205.29 30.4274 206.16 30.1899 207.045 30.2006C209.381 30.2006 209.954 31.8189 209.954 33.3687V36.2695C209.942 36.8913 209.983 37.513 210.076 38.1279H208.816ZM208.605 34.1711C207.093 34.1711 205.369 34.4111 205.369 35.9197C205.35 36.0999 205.37 36.2821 205.428 36.4536C205.486 36.6251 205.581 36.7817 205.706 36.9124C205.83 37.0431 205.982 37.1447 206.15 37.2102C206.318 37.2756 206.498 37.3033 206.677 37.2913C207.082 37.2996 207.48 37.1787 207.812 36.9459C208.145 36.7131 208.396 36.3803 208.53 35.9952C208.578 35.8491 208.603 35.6964 208.605 35.5426V34.1711Z" fill="white"/>
<path d="M220.996 37.8399C220.306 38.1509 219.557 38.3032 218.802 38.2856C216.493 38.2856 214.994 36.7015 214.994 34.3288C214.967 33.7812 215.054 33.2339 215.25 32.7223C215.445 32.2106 215.746 31.7459 216.131 31.3582C216.516 30.9705 216.977 30.6684 217.486 30.4714C217.994 30.2743 218.538 30.1868 219.081 30.2143C219.745 30.2079 220.403 30.3459 221.009 30.6189L220.689 31.7024C220.194 31.4415 219.64 31.3162 219.081 31.3389C217.324 31.3389 216.357 32.6487 216.357 34.2671C216.357 36.0638 217.494 37.1678 219.013 37.1678C219.602 37.1683 220.184 37.0371 220.716 36.7838L220.996 37.8399Z" fill="white"/>
<path d="M226.908 38.1279L226.799 37.1473H226.738C226.467 37.5137 226.113 37.8096 225.705 38.01C225.298 38.2104 224.848 38.3096 224.395 38.2993C224.093 38.3202 223.791 38.278 223.507 38.1754C223.223 38.0729 222.963 37.9122 222.743 37.7035C222.524 37.4947 222.349 37.2425 222.232 36.9627C222.114 36.6828 222.055 36.3814 222.058 36.0775C222.058 34.2054 223.7 33.1767 226.656 33.1973V33.0327C226.687 32.7938 226.664 32.5509 226.589 32.3222C226.513 32.0935 226.387 31.8852 226.22 31.7128C226.053 31.5404 225.849 31.4085 225.623 31.3271C225.398 31.2458 225.157 31.217 224.919 31.2429C224.216 31.2435 223.526 31.4431 222.93 31.8189L222.651 30.8863C223.409 30.4274 224.28 30.1899 225.164 30.2006C227.508 30.2006 228.073 31.8189 228.073 33.3687V36.2695C228.063 36.8915 228.107 37.5133 228.202 38.1279H226.908ZM226.704 34.1711C225.185 34.1711 223.461 34.4111 223.461 35.9197C223.442 36.1005 223.462 36.2834 223.521 36.4554C223.579 36.6274 223.675 36.7843 223.8 36.9152C223.925 37.046 224.078 37.1475 224.247 37.2125C224.415 37.2775 224.596 37.3044 224.776 37.2913C225.181 37.3013 225.578 37.181 225.91 36.9479C226.242 36.7148 226.492 36.381 226.622 35.9952C226.672 35.8494 226.7 35.6968 226.704 35.5426V34.1711Z" fill="white"/>
<path d="M231.574 30.3789V33.6431C231.574 34.8774 231.574 35.6455 231.493 36.7495H231.54C231.997 35.8101 232.269 35.2615 232.773 34.3631L235.157 30.3652H236.785V38.1142H235.457V34.8294C235.457 33.5676 235.491 32.9093 235.552 31.6613H235.505C235.014 32.6556 234.687 33.2796 234.245 34.0614C233.516 35.2615 232.678 36.7495 231.854 38.1142H230.26V30.3652L231.574 30.3789ZM232.473 27.2244C232.521 27.9102 232.848 28.4382 233.482 28.4382C234.115 28.4382 234.476 27.9239 234.558 27.2244H235.552C235.561 27.4984 235.512 27.7712 235.408 28.0245C235.304 28.2779 235.148 28.5059 234.949 28.6935C234.75 28.8811 234.514 29.0239 234.257 29.1123C233.999 29.2007 233.725 29.2327 233.454 29.2063C233.189 29.2275 232.923 29.191 232.673 29.0993C232.423 29.0077 232.196 28.8629 232.006 28.6749C231.817 28.4868 231.67 28.26 231.575 28.0097C231.481 27.7594 231.441 27.4916 231.458 27.2244H232.473Z" fill="white"/>
<path d="M244.169 30.3789V31.4967H241.778V38.1279H240.416V31.4967H238.025V30.3789H244.169Z" fill="white"/>
<path d="M252.098 34.1848C252.098 37.0513 250.143 38.2993 248.29 38.2993C246.247 38.2993 244.626 36.7633 244.626 34.3151C244.626 31.723 246.301 30.2006 248.42 30.2006C250.538 30.2006 252.098 31.819 252.098 34.1848ZM246.036 34.2671C246.036 35.9678 246.996 37.2433 248.359 37.2433C249.721 37.2433 250.681 35.9815 250.681 34.2328C250.681 32.923 250.034 31.2566 248.386 31.2566C246.737 31.2566 246.036 32.7927 246.036 34.2671V34.2671Z" fill="white"/>
<path d="M253.822 30.4749C254.629 30.3537 255.444 30.2941 256.26 30.2966C257.541 30.2966 259.666 30.5023 259.666 32.2304C259.65 32.6642 259.48 33.0779 259.188 33.3971C258.896 33.7164 258.5 33.9203 258.072 33.9722V34.0065C259.196 34.1642 260.02 34.802 260.02 35.9266C260.02 37.9839 257.486 38.217 255.988 38.217C255.136 38.217 254.251 38.1485 253.835 38.121L253.822 30.4749ZM255.136 37.1953C255.509 37.2435 255.885 37.2664 256.26 37.2638C257.194 37.2638 258.583 37.0375 258.583 35.8923C258.583 34.7471 257.473 34.5208 256.145 34.5208H255.136V37.1953ZM255.136 33.6293H256.179C257.207 33.6293 258.27 33.3208 258.27 32.4087C258.27 31.6407 257.589 31.2704 256.226 31.2704C255.866 31.2721 255.507 31.295 255.15 31.3389L255.136 33.6293Z" fill="white"/>
</g>
<defs>
<clipPath id="clip0_2_12">
<rect width="260" height="80" fill="white"/>
</clipPath>
</defs>
</svg>
